solid CATIA STL
  facet normal  4.675156e-001 -8.839703e-001 -5.082233e-003
    outer loop
      vertex -4.000000e+000 -4.527864e+000  0.000000e+000
      vertex -1.445106e+000 -3.176627e+000  0.000000e+000
      vertex -1.360253e+000 -3.156224e+000  4.256890e+000
    endloop
  endfacet
  facet normal  4.101885e-001 -9.111568e-001  3.922696e-002
    outer loop
      vertex -4.000000e+000 -4.527864e+000  0.000000e+000
      vertex -1.360253e+000 -3.156224e+000  4.256890e+000
      vertex -1.545389e+000 -3.202434e+000  5.119474e+000
    endloop
  endfacet
  facet normal  8.842163e-001 -3.187231e-001 -3.414340e-001
    outer loop
      vertex -4.000000e+000 -4.527864e+000  0.000000e+000
      vertex -1.545389e+000 -3.202434e+000  5.119474e+000
      vertex -1.164849e+000 -3.114159e+000  6.022559e+000
    endloop
  endfacet
  facet normal  4.404514e-001 -8.977700e-001  3.393245e-003
    outer loop
      vertex -4.000000e+000 -4.527864e+000  0.000000e+000
      vertex -1.164849e+000 -3.114159e+000  6.022559e+000
      vertex -1.360253e+000 -3.156224e+000  2.025689e+001
    endloop
  endfacet
  facet normal  3.316270e-001 -9.431846e-001  2.064965e-002
    outer loop
      vertex -4.000000e+000 -4.527864e+000  0.000000e+000
      vertex -1.360253e+000 -3.156224e+000  2.025689e+001
      vertex -1.545389e+000 -3.202434e+000  2.111947e+001
    endloop
  endfacet
  facet normal  4.954577e-001 -8.686266e-001 -3.070727e-003
    outer loop
      vertex -4.000000e+000 -4.527864e+000  0.000000e+000
      vertex -1.545389e+000 -3.202434e+000  2.111947e+001
      vertex -1.445106e+000 -3.176627e+000  3.000000e+001
    endloop
  endfacet
  facet normal  4.675217e-001 -8.839816e-001  0.000000e+000
    outer loop
      vertex -4.000000e+000 -4.527864e+000  0.000000e+000
      vertex -1.445106e+000 -3.176627e+000  3.000000e+001
      vertex -4.000000e+000 -4.527864e+000  3.000000e+001
    endloop
  endfacet
  facet normal -4.675160e-001 -8.839709e-001  4.932178e-003
    outer loop
      vertex  1.445106e+000 -3.176627e+000  0.000000e+000
      vertex  4.000000e+000 -4.527864e+000  0.000000e+000
      vertex  1.545389e+000 -3.202434e+000  4.880526e+000
    endloop
  endfacet
  facet normal -2.247705e-001 -9.744116e-001 -5.338547e-004
    outer loop
      vertex  1.445106e+000 -3.176627e+000  0.000000e+000
      vertex  1.545389e+000 -3.202434e+000  4.880526e+000
      vertex  1.164849e+000 -3.114159e+000  3.977441e+000
    endloop
  endfacet
  facet normal -1.280267e-001 -9.917490e-001  6.555160e-003
    outer loop
      vertex  1.445106e+000 -3.176627e+000  0.000000e+000
      vertex  1.164849e+000 -3.114159e+000  3.977441e+000
      vertex  3.224040e-001 -3.008668e+000  3.483901e+000
    endloop
  endfacet
  facet normal  3.406147e-002 -9.976723e-001  5.907433e-002
    outer loop
      vertex  1.445106e+000 -3.176627e+000  0.000000e+000
      vertex  3.224040e-001 -3.008668e+000  3.483901e+000
      vertex -6.509981e-001 -3.035421e+000  3.593337e+000
    endloop
  endfacet
  facet normal  3.996847e-001 -8.767223e-001  2.676007e-001
    outer loop
      vertex  1.445106e+000 -3.176627e+000  0.000000e+000
      vertex -6.509981e-001 -3.035421e+000  3.593337e+000
      vertex -1.360253e+000 -3.156224e+000  4.256890e+000
    endloop
  endfacet
  facet normal  0.000000e+000 -9.999886e-001  4.792859e-003
    outer loop
      vertex  1.445106e+000 -3.176627e+000  0.000000e+000
      vertex -1.360253e+000 -3.156224e+000  4.256890e+000
      vertex -1.445106e+000 -3.176627e+000  0.000000e+000
    endloop
  endfacet
  facet normal  0.000000e+000 -9.999958e-001  2.905945e-003
    outer loop
      vertex  1.445106e+000 -3.176627e+000  3.000000e+001
      vertex -1.445106e+000 -3.176627e+000  3.000000e+001
      vertex -1.545389e+000 -3.202434e+000  2.111947e+001
    endloop
  endfacet
  facet normal  7.239724e-001 -6.460180e-001 -2.419186e-001
    outer loop
      vertex  1.445106e+000 -3.176627e+000  3.000000e+001
      vertex -1.545389e+000 -3.202434e+000  2.111947e+001
      vertex -1.164849e+000 -3.114159e+000  2.202256e+001
    endloop
  endfacet
  facet normal  1.582741e-001 -9.856008e-001 -5.949996e-002
    outer loop
      vertex  1.445106e+000 -3.176627e+000  3.000000e+001
      vertex -1.164849e+000 -3.114159e+000  2.202256e+001
      vertex -3.224040e-001 -3.008668e+000  2.251610e+001
    endloop
  endfacet
  facet normal -2.921494e-002 -9.994525e-001 -1.553061e-002
    outer loop
      vertex  1.445106e+000 -3.176627e+000  3.000000e+001
      vertex -3.224040e-001 -3.008668e+000  2.251610e+001
      vertex  6.509981e-001 -3.035421e+000  2.240666e+001
    endloop
  endfacet
  facet normal -1.685458e-001 -9.856936e-001 -7.035829e-004
    outer loop
      vertex  1.445106e+000 -3.176627e+000  3.000000e+001
      vertex  6.509981e-001 -3.035421e+000  2.240666e+001
      vertex  1.360253e+000 -3.156224e+000  2.174311e+001
    endloop
  endfacet
  facet normal -2.417860e-001 -9.703296e-001  8.704342e-005
    outer loop
      vertex  1.445106e+000 -3.176627e+000  3.000000e+001
      vertex  1.360253e+000 -3.156224e+000  2.174311e+001
      vertex  1.545389e+000 -3.202434e+000  2.088053e+001
    endloop
  endfacet
  facet normal -4.675200e-001 -8.839786e-001 -2.639607e-003
    outer loop
      vertex  1.445106e+000 -3.176627e+000  3.000000e+001
      vertex  1.545389e+000 -3.202434e+000  2.088053e+001
      vertex  4.000000e+000 -4.527864e+000  3.000000e+001
    endloop
  endfacet
  facet normal -4.751323e-001 -8.799143e-001  0.000000e+000
    outer loop
      vertex  4.000000e+000 -4.527864e+000  3.000000e+001
      vertex  1.545389e+000 -3.202434e+000  2.088053e+001
      vertex  4.000000e+000 -4.527864e+000  0.000000e+000
    endloop
  endfacet
  facet normal -4.561676e-001 -8.898892e-001  2.862563e-003
    outer loop
      vertex  4.000000e+000 -4.527864e+000  0.000000e+000
      vertex  1.545389e+000 -3.202434e+000  2.088053e+001
      vertex  1.360253e+000 -3.156224e+000  5.743110e+000
    endloop
  endfacet
  facet normal -6.008766e-001 -7.946591e-001 -8.639508e-002
    outer loop
      vertex  4.000000e+000 -4.527864e+000  0.000000e+000
      vertex  1.360253e+000 -3.156224e+000  5.743110e+000
      vertex  1.545389e+000 -3.202434e+000  4.880526e+000
    endloop
  endfacet
  facet normal -2.254859e-001 -9.742464e-001 -2.162729e-004
    outer loop
      vertex  1.545389e+000 -3.202434e+000  2.088053e+001
      vertex  1.164849e+000 -3.114159e+000  1.997744e+001
      vertex  1.360253e+000 -3.156224e+000  5.743110e+000
    endloop
  endfacet
  facet normal -1.249510e-001 -9.921622e-001  1.216778e-003
    outer loop
      vertex  1.360253e+000 -3.156224e+000  5.743110e+000
      vertex  1.164849e+000 -3.114159e+000  1.997744e+001
      vertex  3.224040e-001 -3.008668e+000  1.948390e+001
    endloop
  endfacet
  facet normal -1.699552e-001 -9.854493e-001 -2.254498e-003
    outer loop
      vertex  1.360253e+000 -3.156224e+000  5.743110e+000
      vertex  3.224040e-001 -3.008668e+000  1.948390e+001
      vertex  6.509981e-001 -3.035421e+000  6.406663e+000
    endloop
  endfacet
  facet normal  2.778164e-002 -9.996102e-001  2.743041e-003
    outer loop
      vertex  6.509981e-001 -3.035421e+000  6.406663e+000
      vertex  3.224040e-001 -3.008668e+000  1.948390e+001
      vertex -6.509981e-001 -3.035421e+000  1.959334e+001
    endloop
  endfacet
  facet normal -2.778164e-002 -9.996103e-001 -2.743042e-003
    outer loop
      vertex  6.509981e-001 -3.035421e+000  6.406663e+000
      vertex -6.509981e-001 -3.035421e+000  1.959334e+001
      vertex -3.224040e-001 -3.008668e+000  6.516099e+000
    endloop
  endfacet
  facet normal  1.699552e-001 -9.854493e-001  2.254498e-003
    outer loop
      vertex -3.224040e-001 -3.008668e+000  6.516099e+000
      vertex -6.509981e-001 -3.035421e+000  1.959334e+001
      vertex -1.360253e+000 -3.156224e+000  2.025689e+001
    endloop
  endfacet
  facet normal  1.249510e-001 -9.921622e-001 -1.216778e-003
    outer loop
      vertex -3.224040e-001 -3.008668e+000  6.516099e+000
      vertex -1.360253e+000 -3.156224e+000  2.025689e+001
      vertex -1.164849e+000 -3.114159e+000  6.022559e+000
    endloop
  endfacet
  facet normal  0.000000e+000  1.000000e+000  0.000000e+000
    outer loop
      vertex -3.500000e+000  5.000000e+000  1.800000e+001
      vertex -2.632748e+000  5.000000e+000  1.956172e+001
      vertex -1.284540e+000  5.000000e+000  1.828892e+001
    endloop
  endfacet
  facet normal  0.000000e+000  1.000000e+000  0.000000e+000
    outer loop
      vertex -3.500000e+000  5.000000e+000  1.800000e+001
      vertex -2.975335e+000  5.000000e+000  2.138390e+001
      vertex -2.632748e+000  5.000000e+000  1.956172e+001
    endloop
  endfacet
  facet normal  -0.000000e+000  1.000000e+000  0.000000e+000
    outer loop
      vertex  3.500000e+000  5.000000e+000  0.000000e+000
      vertex  2.181446e+000  5.000000e+000  2.940560e+000
      vertex  2.975335e+000  5.000000e+000  4.616100e+000
    endloop
  endfacet
  facet normal  -0.000000e+000  1.000000e+000  0.000000e+000
    outer loop
      vertex  3.500000e+000  5.000000e+000  0.000000e+000
      vertex  5.543185e-001  5.000000e+000  2.051656e+000
      vertex  2.181446e+000  5.000000e+000  2.940560e+000
    endloop
  endfacet
  facet normal  0.000000e+000  1.000000e+000  0.000000e+000
    outer loop
      vertex -5.543185e-001  5.000000e+000  7.948344e+000
      vertex  5.543185e-001  5.000000e+000  1.805166e+001
      vertex  1.284540e+000  5.000000e+000  7.711081e+000
    endloop
  endfacet
  facet normal  0.000000e+000  1.000000e+000  0.000000e+000
    outer loop
      vertex -3.500000e+000  5.000000e+000  1.200000e+001
      vertex -1.050000e+001  5.000000e+000  1.200000e+001
      vertex -1.050000e+001  5.000000e+000  1.800000e+001
    endloop
  endfacet
  facet normal  -0.000000e+000  1.000000e+000  0.000000e+000
    outer loop
      vertex -3.500000e+000  5.000000e+000  1.200000e+001
      vertex -1.050000e+001  5.000000e+000  1.800000e+001
      vertex -3.500000e+000  5.000000e+000  1.800000e+001
    endloop
  endfacet
  facet normal  -0.000000e+000  1.000000e+000  0.000000e+000
    outer loop
      vertex -3.500000e+000  5.000000e+000  1.200000e+001
      vertex -3.500000e+000  5.000000e+000  1.800000e+001
      vertex -1.284540e+000  5.000000e+000  1.828892e+001
    endloop
  endfacet
  facet normal  0.000000e+000  1.000000e+000  0.000000e+000
    outer loop
      vertex -3.500000e+000  5.000000e+000  1.200000e+001
      vertex -1.284540e+000  5.000000e+000  1.828892e+001
      vertex  5.543185e-001  5.000000e+000  1.805166e+001
    endloop
  endfacet
  facet normal  0.000000e+000  1.000000e+000  0.000000e+000
    outer loop
      vertex -3.500000e+000  5.000000e+000  1.200000e+001
      vertex  5.543185e-001  5.000000e+000  1.805166e+001
      vertex -5.543185e-001  5.000000e+000  7.948344e+000
    endloop
  endfacet
  facet normal  0.000000e+000  1.000000e+000  0.000000e+000
    outer loop
      vertex -3.500000e+000  5.000000e+000  1.200000e+001
      vertex -5.543185e-001  5.000000e+000  7.948344e+000
      vertex -2.181446e+000  5.000000e+000  7.059440e+000
    endloop
  endfacet
  facet normal  0.000000e+000  9.999999e-001  0.000000e+000
    outer loop
      vertex -3.500000e+000  5.000000e+000  1.200000e+001
      vertex -2.181446e+000  5.000000e+000  7.059440e+000
      vertex -2.975335e+000  5.000000e+000  5.383900e+000
    endloop
  endfacet
  facet normal  0.000000e+000  9.999999e-001  0.000000e+000
    outer loop
      vertex -3.500000e+000  5.000000e+000  0.000000e+000
      vertex -3.500000e+000  5.000000e+000  1.200000e+001
      vertex -2.975335e+000  5.000000e+000  5.383900e+000
    endloop
  endfacet
  facet normal  0.000000e+000  9.999999e-001  0.000000e+000
    outer loop
      vertex -3.500000e+000  5.000000e+000  0.000000e+000
      vertex -2.975335e+000  5.000000e+000  5.383900e+000
      vertex -2.632748e+000  5.000000e+000  3.561723e+000
    endloop
  endfacet
  facet normal  0.000000e+000  1.000000e+000  0.000000e+000
    outer loop
      vertex -3.500000e+000  5.000000e+000  0.000000e+000
      vertex -2.632748e+000  5.000000e+000  3.561723e+000
      vertex -1.284540e+000  5.000000e+000  2.288919e+000
    endloop
  endfacet
  facet normal  0.000000e+000  1.000000e+000  0.000000e+000
    outer loop
      vertex -3.500000e+000  5.000000e+000  0.000000e+000
      vertex -1.284540e+000  5.000000e+000  2.288919e+000
      vertex  5.543185e-001  5.000000e+000  2.051656e+000
    endloop
  endfacet
  facet normal  0.000000e+000  1.000000e+000  0.000000e+000
    outer loop
      vertex -3.500000e+000  5.000000e+000  0.000000e+000
      vertex  5.543185e-001  5.000000e+000  2.051656e+000
      vertex  3.500000e+000  5.000000e+000  0.000000e+000
    endloop
  endfacet
  facet normal  0.000000e+000  1.000000e+000  -0.000000e+000
    outer loop
      vertex  3.500000e+000  5.000000e+000  3.000000e+001
      vertex  3.500000e+000  5.000000e+000  1.800000e+001
      vertex  2.632748e+000  5.000000e+000  2.243828e+001
    endloop
  endfacet
  facet normal  0.000000e+000  1.000000e+000  -0.000000e+000
    outer loop
      vertex  3.500000e+000  5.000000e+000  3.000000e+001
      vertex  2.632748e+000  5.000000e+000  2.243828e+001
      vertex  1.284540e+000  5.000000e+000  2.371108e+001
    endloop
  endfacet
  facet normal  0.000000e+000  1.000000e+000  -0.000000e+000
    outer loop
      vertex  3.500000e+000  5.000000e+000  3.000000e+001
      vertex  1.284540e+000  5.000000e+000  2.371108e+001
      vertex -5.543185e-001  5.000000e+000  2.394834e+001
    endloop
  endfacet
  facet normal  0.000000e+000  1.000000e+000  -0.000000e+000
    outer loop
      vertex  3.500000e+000  5.000000e+000  3.000000e+001
      vertex -5.543185e-001  5.000000e+000  2.394834e+001
      vertex -3.500000e+000  5.000000e+000  3.000000e+001
    endloop
  endfacet
  facet normal  0.000000e+000  9.999999e-001  -0.000000e+000
    outer loop
      vertex  3.500000e+000  5.000000e+000  1.200000e+001
      vertex  3.500000e+000  5.000000e+000  0.000000e+000
      vertex  2.975335e+000  5.000000e+000  4.616100e+000
    endloop
  endfacet
  facet normal  0.000000e+000  1.000000e+000  -0.000000e+000
    outer loop
      vertex  3.500000e+000  5.000000e+000  1.200000e+001
      vertex  2.975335e+000  5.000000e+000  4.616100e+000
      vertex  2.632748e+000  5.000000e+000  6.438277e+000
    endloop
  endfacet
  facet normal  0.000000e+000  1.000000e+000  -0.000000e+000
    outer loop
      vertex  3.500000e+000  5.000000e+000  1.200000e+001
      vertex  2.632748e+000  5.000000e+000  6.438277e+000
      vertex  1.284540e+000  5.000000e+000  7.711081e+000
    endloop
  endfacet
  facet normal  0.000000e+000  1.000000e+000  -0.000000e+000
    outer loop
      vertex  3.500000e+000  5.000000e+000  1.200000e+001
      vertex  1.284540e+000  5.000000e+000  7.711081e+000
      vertex  5.543185e-001  5.000000e+000  1.805166e+001
    endloop
  endfacet
  facet normal  0.000000e+000  1.000000e+000  0.000000e+000
    outer loop
      vertex  3.500000e+000  5.000000e+000  1.200000e+001
      vertex  5.543185e-001  5.000000e+000  1.805166e+001
      vertex  3.500000e+000  5.000000e+000  1.800000e+001
    endloop
  endfacet
  facet normal  -0.000000e+000  1.000000e+000  0.000000e+000
    outer loop
      vertex  3.500000e+000  5.000000e+000  1.200000e+001
      vertex  3.500000e+000  5.000000e+000  1.800000e+001
      vertex  1.050000e+001  5.000000e+000  1.800000e+001
    endloop
  endfacet
  facet normal  0.000000e+000  1.000000e+000  0.000000e+000
    outer loop
      vertex  3.500000e+000  5.000000e+000  1.200000e+001
      vertex  1.050000e+001  5.000000e+000  1.800000e+001
      vertex  1.050000e+001  5.000000e+000  1.200000e+001
    endloop
  endfacet
  facet normal  -0.000000e+000  1.000000e+000  0.000000e+000
    outer loop
      vertex  3.500000e+000  5.000000e+000  1.800000e+001
      vertex  5.543185e-001  5.000000e+000  1.805166e+001
      vertex  2.181446e+000  5.000000e+000  1.894056e+001
    endloop
  endfacet
  facet normal  -0.000000e+000  1.000000e+000  0.000000e+000
    outer loop
      vertex  3.500000e+000  5.000000e+000  1.800000e+001
      vertex  2.181446e+000  5.000000e+000  1.894056e+001
      vertex  2.975335e+000  5.000000e+000  2.061610e+001
    endloop
  endfacet
  facet normal  -0.000000e+000  1.000000e+000  -0.000000e+000
    outer loop
      vertex  3.500000e+000  5.000000e+000  1.800000e+001
      vertex  2.975335e+000  5.000000e+000  2.061610e+001
      vertex  2.632748e+000  5.000000e+000  2.243828e+001
    endloop
  endfacet
  facet normal  0.000000e+000  1.000000e+000  0.000000e+000
    outer loop
      vertex -3.500000e+000  5.000000e+000  3.000000e+001
      vertex -5.543185e-001  5.000000e+000  2.394834e+001
      vertex -2.181446e+000  5.000000e+000  2.305944e+001
    endloop
  endfacet
  facet normal  0.000000e+000  9.999999e-001  0.000000e+000
    outer loop
      vertex -3.500000e+000  5.000000e+000  3.000000e+001
      vertex -2.181446e+000  5.000000e+000  2.305944e+001
      vertex -2.975335e+000  5.000000e+000  2.138390e+001
    endloop
  endfacet
  facet normal  0.000000e+000  9.999999e-001  0.000000e+000
    outer loop
      vertex -3.500000e+000  5.000000e+000  3.000000e+001
      vertex -2.975335e+000  5.000000e+000  2.138390e+001
      vertex -3.500000e+000  5.000000e+000  1.800000e+001
    endloop
  endfacet
  facet normal  7.785652e-001 -2.279302e-002 -6.271495e-001
    outer loop
      vertex -7.431096e-001  2.000000e+000  2.236025e+001
      vertex -1.164849e+000 -3.114159e+000  2.202256e+001
      vertex -1.487302e+000  2.000000e+000  2.143639e+001
    endloop
  endfacet
  facet normal  5.039825e-001  1.546196e-002 -8.635754e-001
    outer loop
      vertex -7.431096e-001  2.000000e+000  2.236025e+001
      vertex -3.224040e-001 -3.008668e+000  2.251610e+001
      vertex -1.164849e+000 -3.114159e+000  2.202256e+001
    endloop
  endfacet
  facet normal  1.070706e-001 -2.193534e-002 -9.940094e-001
    outer loop
      vertex -3.224040e-001 -3.008668e+000  2.251610e+001
      vertex -7.431096e-001  2.000000e+000  2.236025e+001
      vertex  4.363863e-001  2.000000e+000  2.248730e+001
    endloop
  endfacet
  facet normal  9.209744e-001  1.343725e-002 -3.893915e-001
    outer loop
      vertex -1.164849e+000 -3.114159e+000  2.202256e+001
      vertex -1.545389e+000 -3.202434e+000  2.111947e+001
      vertex -1.487302e+000  2.000000e+000  2.143639e+001
    endloop
  endfacet
  facet normal  9.777196e-001 -2.362249e-002  2.085817e-001
    outer loop
      vertex -1.487302e+000  2.000000e+000  2.143639e+001
      vertex -1.545389e+000 -3.202434e+000  2.111947e+001
      vertex -1.360253e+000 -3.156224e+000  2.025689e+001
    endloop
  endfacet
  facet normal  9.942488e-001  -0.000000e+000  1.070952e-001
    outer loop
      vertex -1.487302e+000  2.000000e+000  2.143639e+001
      vertex -1.360253e+000 -3.156224e+000  2.025689e+001
      vertex -1.360253e+000  2.000000e+000  2.025689e+001
    endloop
  endfacet
  facet normal -1.114106e-001  1.116526e-002 -9.937117e-001
    outer loop
      vertex -3.224040e-001 -3.008668e+000  2.251610e+001
      vertex  4.363863e-001  2.000000e+000  2.248730e+001
      vertex  6.509981e-001 -3.035421e+000  2.240666e+001
    endloop
  endfacet
  facet normal -6.272494e-001 -1.426347e-002 -7.786878e-001
    outer loop
      vertex  6.509981e-001 -3.035421e+000  2.240666e+001
      vertex  4.363863e-001  2.000000e+000  2.248730e+001
      vertex  1.360253e+000  2.000000e+000  2.174311e+001
    endloop
  endfacet
  facet normal -6.831893e-001  -0.000000e+000 -7.302414e-001
    outer loop
      vertex  6.509981e-001 -3.035421e+000  2.240666e+001
      vertex  1.360253e+000  2.000000e+000  2.174311e+001
      vertex  1.360253e+000 -3.156224e+000  2.174311e+001
    endloop
  endfacet
  facet normal -7.785652e-001 -2.279302e-002  6.271495e-001
    outer loop
      vertex  7.431096e-001  2.000000e+000  1.963975e+001
      vertex  1.164849e+000 -3.114159e+000  1.997744e+001
      vertex  1.487302e+000  2.000000e+000  2.056361e+001
    endloop
  endfacet
  facet normal -5.039825e-001  1.546196e-002  8.635754e-001
    outer loop
      vertex  7.431096e-001  2.000000e+000  1.963975e+001
      vertex  3.224040e-001 -3.008668e+000  1.948390e+001
      vertex  1.164849e+000 -3.114159e+000  1.997744e+001
    endloop
  endfacet
  facet normal -1.070706e-001 -2.193534e-002  9.940094e-001
    outer loop
      vertex  3.224040e-001 -3.008668e+000  1.948390e+001
      vertex  7.431096e-001  2.000000e+000  1.963975e+001
      vertex -4.363863e-001  2.000000e+000  1.951270e+001
    endloop
  endfacet
  facet normal -9.209744e-001  1.343725e-002  3.893915e-001
    outer loop
      vertex  1.164849e+000 -3.114159e+000  1.997744e+001
      vertex  1.545389e+000 -3.202434e+000  2.088053e+001
      vertex  1.487302e+000  2.000000e+000  2.056361e+001
    endloop
  endfacet
  facet normal -9.777196e-001 -2.362249e-002 -2.085817e-001
    outer loop
      vertex  1.487302e+000  2.000000e+000  2.056361e+001
      vertex  1.545389e+000 -3.202434e+000  2.088053e+001
      vertex  1.360253e+000 -3.156224e+000  2.174311e+001
    endloop
  endfacet
  facet normal -9.942488e-001  0.000000e+000 -1.070952e-001
    outer loop
      vertex  1.487302e+000  2.000000e+000  2.056361e+001
      vertex  1.360253e+000 -3.156224e+000  2.174311e+001
      vertex  1.360253e+000  2.000000e+000  2.174311e+001
    endloop
  endfacet
  facet normal  1.114106e-001  1.116526e-002  9.937117e-001
    outer loop
      vertex  3.224040e-001 -3.008668e+000  1.948390e+001
      vertex -4.363863e-001  2.000000e+000  1.951270e+001
      vertex -6.509981e-001 -3.035421e+000  1.959334e+001
    endloop
  endfacet
  facet normal  6.272494e-001 -1.426347e-002  7.786878e-001
    outer loop
      vertex -6.509981e-001 -3.035421e+000  1.959334e+001
      vertex -4.363863e-001  2.000000e+000  1.951270e+001
      vertex -1.360253e+000  2.000000e+000  2.025689e+001
    endloop
  endfacet
  facet normal  6.831893e-001  0.000000e+000  7.302414e-001
    outer loop
      vertex -6.509981e-001 -3.035421e+000  1.959334e+001
      vertex -1.360253e+000  2.000000e+000  2.025689e+001
      vertex -1.360253e+000 -3.156224e+000  2.025689e+001
    endloop
  endfacet
  facet normal  9.036936e-001  0.000000e+000 -4.281797e-001
    outer loop
      vertex -2.181446e+000  5.000000e+000  2.305944e+001
      vertex -2.975335e+000  2.000000e+000  2.138390e+001
      vertex -2.975335e+000  5.000000e+000  2.138390e+001
    endloop
  endfacet
  facet normal  9.827812e-001  0.000000e+000  1.847729e-001
    outer loop
      vertex -2.975335e+000  5.000000e+000  2.138390e+001
      vertex -2.975335e+000  2.000000e+000  2.138390e+001
      vertex -2.632748e+000  2.000000e+000  1.956172e+001
    endloop
  endfacet
  facet normal  9.827812e-001  -0.000000e+000  1.847729e-001
    outer loop
      vertex -2.975335e+000  5.000000e+000  2.138390e+001
      vertex -2.632748e+000  2.000000e+000  1.956172e+001
      vertex -2.632748e+000  5.000000e+000  1.956172e+001
    endloop
  endfacet
  facet normal  9.036936e-001  0.000000e+000 -4.281797e-001
    outer loop
      vertex -2.975335e+000  2.000000e+000  2.138390e+001
      vertex -2.181446e+000  5.000000e+000  2.305944e+001
      vertex -2.181446e+000  2.000000e+000  2.305944e+001
    endloop
  endfacet
  facet normal  4.794251e-001  0.000000e+000 -8.775828e-001
    outer loop
      vertex -2.181446e+000  2.000000e+000  2.305944e+001
      vertex -2.181446e+000  5.000000e+000  2.305944e+001
      vertex -5.543185e-001  5.000000e+000  2.394834e+001
    endloop
  endfacet
  facet normal  4.794251e-001  0.000000e+000 -8.775828e-001
    outer loop
      vertex -2.181446e+000  2.000000e+000  2.305944e+001
      vertex -5.543185e-001  5.000000e+000  2.394834e+001
      vertex -5.543185e-001  2.000000e+000  2.394834e+001
    endloop
  endfacet
  facet normal -1.279664e-001  0.000000e+000 -9.917785e-001
    outer loop
      vertex -5.543185e-001  2.000000e+000  2.394834e+001
      vertex -5.543185e-001  5.000000e+000  2.394834e+001
      vertex  1.284540e+000  5.000000e+000  2.371108e+001
    endloop
  endfacet
  facet normal -1.279664e-001  -0.000000e+000 -9.917785e-001
    outer loop
      vertex -5.543185e-001  2.000000e+000  2.394834e+001
      vertex  1.284540e+000  5.000000e+000  2.371108e+001
      vertex  1.284540e+000  2.000000e+000  2.371108e+001
    endloop
  endfacet
  facet normal -6.864802e-001  0.000000e+000 -7.271487e-001
    outer loop
      vertex  1.284540e+000  2.000000e+000  2.371108e+001
      vertex  1.284540e+000  5.000000e+000  2.371108e+001
      vertex  2.632748e+000  5.000000e+000  2.243828e+001
    endloop
  endfacet
  facet normal -6.864802e-001  -0.000000e+000 -7.271487e-001
    outer loop
      vertex  1.284540e+000  2.000000e+000  2.371108e+001
      vertex  2.632748e+000  5.000000e+000  2.243828e+001
      vertex  2.632748e+000  2.000000e+000  2.243828e+001
    endloop
  endfacet
  facet normal -9.036936e-001  0.000000e+000  4.281797e-001
    outer loop
      vertex  2.181446e+000  5.000000e+000  1.894056e+001
      vertex  2.975335e+000  2.000000e+000  2.061610e+001
      vertex  2.975335e+000  5.000000e+000  2.061610e+001
    endloop
  endfacet
  facet normal -9.827812e-001  -0.000000e+000 -1.847729e-001
    outer loop
      vertex  2.975335e+000  5.000000e+000  2.061610e+001
      vertex  2.975335e+000  2.000000e+000  2.061610e+001
      vertex  2.632748e+000  2.000000e+000  2.243828e+001
    endloop
  endfacet
  facet normal -9.827812e-001  0.000000e+000 -1.847729e-001
    outer loop
      vertex  2.975335e+000  5.000000e+000  2.061610e+001
      vertex  2.632748e+000  2.000000e+000  2.243828e+001
      vertex  2.632748e+000  5.000000e+000  2.243828e+001
    endloop
  endfacet
  facet normal -9.036936e-001  0.000000e+000  4.281797e-001
    outer loop
      vertex  2.975335e+000  2.000000e+000  2.061610e+001
      vertex  2.181446e+000  5.000000e+000  1.894056e+001
      vertex  2.181446e+000  2.000000e+000  1.894056e+001
    endloop
  endfacet
  facet normal -4.794251e-001  0.000000e+000  8.775828e-001
    outer loop
      vertex  2.181446e+000  2.000000e+000  1.894056e+001
      vertex  2.181446e+000  5.000000e+000  1.894056e+001
      vertex  5.543185e-001  5.000000e+000  1.805166e+001
    endloop
  endfacet
  facet normal -4.794251e-001  0.000000e+000  8.775828e-001
    outer loop
      vertex  2.181446e+000  2.000000e+000  1.894056e+001
      vertex  5.543185e-001  5.000000e+000  1.805166e+001
      vertex  5.543185e-001  2.000000e+000  1.805166e+001
    endloop
  endfacet
  facet normal  1.279664e-001  -0.000000e+000  9.917785e-001
    outer loop
      vertex  5.543185e-001  2.000000e+000  1.805166e+001
      vertex  5.543185e-001  5.000000e+000  1.805166e+001
      vertex -1.284540e+000  5.000000e+000  1.828892e+001
    endloop
  endfacet
  facet normal  1.279664e-001  0.000000e+000  9.917785e-001
    outer loop
      vertex  5.543185e-001  2.000000e+000  1.805166e+001
      vertex -1.284540e+000  5.000000e+000  1.828892e+001
      vertex -1.284540e+000  2.000000e+000  1.828892e+001
    endloop
  endfacet
  facet normal  6.864802e-001  -0.000000e+000  7.271487e-001
    outer loop
      vertex -1.284540e+000  2.000000e+000  1.828892e+001
      vertex -1.284540e+000  5.000000e+000  1.828892e+001
      vertex -2.632748e+000  5.000000e+000  1.956172e+001
    endloop
  endfacet
  facet normal  6.864802e-001  0.000000e+000  7.271487e-001
    outer loop
      vertex -1.284540e+000  2.000000e+000  1.828892e+001
      vertex -2.632748e+000  5.000000e+000  1.956172e+001
      vertex -2.632748e+000  2.000000e+000  1.956172e+001
    endloop
  endfacet
  facet normal  -0.000000e+000  1.000000e+000  0.000000e+000
    outer loop
      vertex -2.632748e+000  2.000000e+000  1.956172e+001
      vertex -2.975335e+000  2.000000e+000  2.138390e+001
      vertex -1.487302e+000  2.000000e+000  2.143639e+001
    endloop
  endfacet
  facet normal  0.000000e+000  1.000000e+000  0.000000e+000
    outer loop
      vertex -2.632748e+000  2.000000e+000  1.956172e+001
      vertex -1.487302e+000  2.000000e+000  2.143639e+001
      vertex -1.360253e+000  2.000000e+000  2.025689e+001
    endloop
  endfacet
  facet normal  0.000000e+000  9.999999e-001  0.000000e+000
    outer loop
      vertex -2.632748e+000  2.000000e+000  1.956172e+001
      vertex -1.360253e+000  2.000000e+000  2.025689e+001
      vertex -4.363863e-001  2.000000e+000  1.951270e+001
    endloop
  endfacet
  facet normal  0.000000e+000  1.000000e+000  0.000000e+000
    outer loop
      vertex -2.632748e+000  2.000000e+000  1.956172e+001
      vertex -4.363863e-001  2.000000e+000  1.951270e+001
      vertex -1.284540e+000  2.000000e+000  1.828892e+001
    endloop
  endfacet
  facet normal  0.000000e+000  1.000000e+000  0.000000e+000
    outer loop
      vertex -1.284540e+000  2.000000e+000  1.828892e+001
      vertex -4.363863e-001  2.000000e+000  1.951270e+001
      vertex  5.543185e-001  2.000000e+000  1.805166e+001
    endloop
  endfacet
  facet normal  0.000000e+000  1.000000e+000  -0.000000e+000
    outer loop
      vertex  5.543185e-001  2.000000e+000  1.805166e+001
      vertex -4.363863e-001  2.000000e+000  1.951270e+001
      vertex  7.431096e-001  2.000000e+000  1.963975e+001
    endloop
  endfacet
  facet normal  0.000000e+000  1.000000e+000  0.000000e+000
    outer loop
      vertex  5.543185e-001  2.000000e+000  1.805166e+001
      vertex  7.431096e-001  2.000000e+000  1.963975e+001
      vertex  2.181446e+000  2.000000e+000  1.894056e+001
    endloop
  endfacet
  facet normal  0.000000e+000  1.000000e+000  0.000000e+000
    outer loop
      vertex  2.181446e+000  2.000000e+000  1.894056e+001
      vertex  7.431096e-001  2.000000e+000  1.963975e+001
      vertex  1.487302e+000  2.000000e+000  2.056361e+001
    endloop
  endfacet
  facet normal  -0.000000e+000  9.999999e-001  0.000000e+000
    outer loop
      vertex  2.181446e+000  2.000000e+000  1.894056e+001
      vertex  1.487302e+000  2.000000e+000  2.056361e+001
      vertex  2.975335e+000  2.000000e+000  2.061610e+001
    endloop
  endfacet
  facet normal  0.000000e+000  1.000000e+000  0.000000e+000
    outer loop
      vertex  4.363863e-001  2.000000e+000  2.248730e+001
      vertex  1.284540e+000  2.000000e+000  2.371108e+001
      vertex  2.632748e+000  2.000000e+000  2.243828e+001
    endloop
  endfacet
  facet normal  0.000000e+000  1.000000e+000  -0.000000e+000
    outer loop
      vertex  1.284540e+000  2.000000e+000  2.371108e+001
      vertex  4.363863e-001  2.000000e+000  2.248730e+001
      vertex -5.543185e-001  2.000000e+000  2.394834e+001
    endloop
  endfacet
  facet normal  0.000000e+000  1.000000e+000  0.000000e+000
    outer loop
      vertex -5.543185e-001  2.000000e+000  2.394834e+001
      vertex  4.363863e-001  2.000000e+000  2.248730e+001
      vertex -7.431096e-001  2.000000e+000  2.236025e+001
    endloop
  endfacet
  facet normal  0.000000e+000  1.000000e+000  -0.000000e+000
    outer loop
      vertex -5.543185e-001  2.000000e+000  2.394834e+001
      vertex -7.431096e-001  2.000000e+000  2.236025e+001
      vertex -2.181446e+000  2.000000e+000  2.305944e+001
    endloop
  endfacet
  facet normal  0.000000e+000  1.000000e+000  0.000000e+000
    outer loop
      vertex -2.181446e+000  2.000000e+000  2.305944e+001
      vertex -7.431096e-001  2.000000e+000  2.236025e+001
      vertex -1.487302e+000  2.000000e+000  2.143639e+001
    endloop
  endfacet
  facet normal  0.000000e+000  9.999999e-001  0.000000e+000
    outer loop
      vertex -2.181446e+000  2.000000e+000  2.305944e+001
      vertex -1.487302e+000  2.000000e+000  2.143639e+001
      vertex -2.975335e+000  2.000000e+000  2.138390e+001
    endloop
  endfacet
  facet normal  0.000000e+000  1.000000e+000  0.000000e+000
    outer loop
      vertex  1.487302e+000  2.000000e+000  2.056361e+001
      vertex  1.360253e+000  2.000000e+000  2.174311e+001
      vertex  2.975335e+000  2.000000e+000  2.061610e+001
    endloop
  endfacet
  facet normal  0.000000e+000  9.999999e-001  0.000000e+000
    outer loop
      vertex  2.975335e+000  2.000000e+000  2.061610e+001
      vertex  1.360253e+000  2.000000e+000  2.174311e+001
      vertex  4.363863e-001  2.000000e+000  2.248730e+001
    endloop
  endfacet
  facet normal  0.000000e+000  9.999999e-001  0.000000e+000
    outer loop
      vertex  2.975335e+000  2.000000e+000  2.061610e+001
      vertex  4.363863e-001  2.000000e+000  2.248730e+001
      vertex  2.632748e+000  2.000000e+000  2.243828e+001
    endloop
  endfacet
  facet normal  7.785654e-001 -2.279305e-002 -6.271493e-001
    outer loop
      vertex -7.431096e-001  2.000000e+000  6.360253e+000
      vertex -1.164849e+000 -3.114159e+000  6.022559e+000
      vertex -1.487302e+000  2.000000e+000  5.436386e+000
    endloop
  endfacet
  facet normal  5.039829e-001  1.546191e-002 -8.635752e-001
    outer loop
      vertex -7.431096e-001  2.000000e+000  6.360253e+000
      vertex -3.224040e-001 -3.008668e+000  6.516099e+000
      vertex -1.164849e+000 -3.114159e+000  6.022559e+000
    endloop
  endfacet
  facet normal  1.070694e-001 -2.193554e-002 -9.940096e-001
    outer loop
      vertex -3.224040e-001 -3.008668e+000  6.516099e+000
      vertex -7.431096e-001  2.000000e+000  6.360253e+000
      vertex  4.363863e-001  2.000000e+000  6.487302e+000
    endloop
  endfacet
  facet normal  9.209745e-001  1.343726e-002 -3.893911e-001
    outer loop
      vertex -1.164849e+000 -3.114159e+000  6.022559e+000
      vertex -1.545389e+000 -3.202434e+000  5.119474e+000
      vertex -1.487302e+000  2.000000e+000  5.436386e+000
    endloop
  endfacet
  facet normal  9.777196e-001 -2.362250e-002  2.085817e-001
    outer loop
      vertex -1.487302e+000  2.000000e+000  5.436386e+000
      vertex -1.545389e+000 -3.202434e+000  5.119474e+000
      vertex -1.360253e+000 -3.156224e+000  4.256890e+000
    endloop
  endfacet
  facet normal  9.942487e-001  -0.000000e+000  1.070952e-001
    outer loop
      vertex -1.487302e+000  2.000000e+000  5.436386e+000
      vertex -1.360253e+000 -3.156224e+000  4.256890e+000
      vertex -1.360253e+000  2.000000e+000  4.256890e+000
    endloop
  endfacet
  facet normal -1.114120e-001  1.116510e-002 -9.937115e-001
    outer loop
      vertex -3.224040e-001 -3.008668e+000  6.516099e+000
      vertex  4.363863e-001  2.000000e+000  6.487302e+000
      vertex  6.509981e-001 -3.035421e+000  6.406663e+000
    endloop
  endfacet
  facet normal -6.272483e-001 -1.426349e-002 -7.786885e-001
    outer loop
      vertex  6.509981e-001 -3.035421e+000  6.406663e+000
      vertex  4.363863e-001  2.000000e+000  6.487302e+000
      vertex  1.360253e+000  2.000000e+000  5.743110e+000
    endloop
  endfacet
  facet normal -6.831885e-001  -0.000000e+000 -7.302420e-001
    outer loop
      vertex  6.509981e-001 -3.035421e+000  6.406663e+000
      vertex  1.360253e+000  2.000000e+000  5.743110e+000
      vertex  1.360253e+000 -3.156224e+000  5.743110e+000
    endloop
  endfacet
  facet normal -7.785654e-001 -2.279305e-002  6.271493e-001
    outer loop
      vertex  7.431096e-001  2.000000e+000  3.639747e+000
      vertex  1.164849e+000 -3.114159e+000  3.977441e+000
      vertex  1.487302e+000  2.000000e+000  4.563614e+000
    endloop
  endfacet
  facet normal -5.039828e-001  1.546194e-002  8.635753e-001
    outer loop
      vertex  7.431096e-001  2.000000e+000  3.639747e+000
      vertex  3.224040e-001 -3.008668e+000  3.483901e+000
      vertex  1.164849e+000 -3.114159e+000  3.977441e+000
    endloop
  endfacet
  facet normal -1.070694e-001 -2.193549e-002  9.940096e-001
    outer loop
      vertex  3.224040e-001 -3.008668e+000  3.483901e+000
      vertex  7.431096e-001  2.000000e+000  3.639747e+000
      vertex -4.363863e-001  2.000000e+000  3.512698e+000
    endloop
  endfacet
  facet normal -9.209745e-001  1.343726e-002  3.893911e-001
    outer loop
      vertex  1.164849e+000 -3.114159e+000  3.977441e+000
      vertex  1.545389e+000 -3.202434e+000  4.880526e+000
      vertex  1.487302e+000  2.000000e+000  4.563614e+000
    endloop
  endfacet
  facet normal -9.777196e-001 -2.362250e-002 -2.085817e-001
    outer loop
      vertex  1.487302e+000  2.000000e+000  4.563614e+000
      vertex  1.545389e+000 -3.202434e+000  4.880526e+000
      vertex  1.360253e+000 -3.156224e+000  5.743110e+000
    endloop
  endfacet
  facet normal -9.942487e-001  0.000000e+000 -1.070952e-001
    outer loop
      vertex  1.487302e+000  2.000000e+000  4.563614e+000
      vertex  1.360253e+000 -3.156224e+000  5.743110e+000
      vertex  1.360253e+000  2.000000e+000  5.743110e+000
    endloop
  endfacet
  facet normal  1.114120e-001  1.116515e-002  9.937115e-001
    outer loop
      vertex  3.224040e-001 -3.008668e+000  3.483901e+000
      vertex -4.363863e-001  2.000000e+000  3.512698e+000
      vertex -6.509981e-001 -3.035421e+000  3.593337e+000
    endloop
  endfacet
  facet normal  6.272483e-001 -1.426345e-002  7.786885e-001
    outer loop
      vertex -6.509981e-001 -3.035421e+000  3.593337e+000
      vertex -4.363863e-001  2.000000e+000  3.512698e+000
      vertex -1.360253e+000  2.000000e+000  4.256890e+000
    endloop
  endfacet
  facet normal  6.831884e-001  0.000000e+000  7.302421e-001
    outer loop
      vertex -6.509981e-001 -3.035421e+000  3.593337e+000
      vertex -1.360253e+000  2.000000e+000  4.256890e+000
      vertex -1.360253e+000 -3.156224e+000  4.256890e+000
    endloop
  endfacet
  facet normal  9.036935e-001  0.000000e+000 -4.281799e-001
    outer loop
      vertex -2.181446e+000  5.000000e+000  7.059440e+000
      vertex -2.975335e+000  2.000000e+000  5.383900e+000
      vertex -2.975335e+000  5.000000e+000  5.383900e+000
    endloop
  endfacet
  facet normal  9.827812e-001  0.000000e+000  1.847728e-001
    outer loop
      vertex -2.975335e+000  5.000000e+000  5.383900e+000
      vertex -2.975335e+000  2.000000e+000  5.383900e+000
      vertex -2.632748e+000  2.000000e+000  3.561723e+000
    endloop
  endfacet
  facet normal  9.827812e-001  -0.000000e+000  1.847728e-001
    outer loop
      vertex -2.975335e+000  5.000000e+000  5.383900e+000
      vertex -2.632748e+000  2.000000e+000  3.561723e+000
      vertex -2.632748e+000  5.000000e+000  3.561723e+000
    endloop
  endfacet
  facet normal  9.036935e-001  0.000000e+000 -4.281799e-001
    outer loop
      vertex -2.975335e+000  2.000000e+000  5.383900e+000
      vertex -2.181446e+000  5.000000e+000  7.059440e+000
      vertex -2.181446e+000  2.000000e+000  7.059440e+000
    endloop
  endfacet
  facet normal  4.794255e-001  0.000000e+000 -8.775826e-001
    outer loop
      vertex -2.181446e+000  2.000000e+000  7.059440e+000
      vertex -2.181446e+000  5.000000e+000  7.059440e+000
      vertex -5.543185e-001  5.000000e+000  7.948344e+000
    endloop
  endfacet
  facet normal  4.794255e-001  0.000000e+000 -8.775826e-001
    outer loop
      vertex -2.181446e+000  2.000000e+000  7.059440e+000
      vertex -5.543185e-001  5.000000e+000  7.948344e+000
      vertex -5.543185e-001  2.000000e+000  7.948344e+000
    endloop
  endfacet
  facet normal -1.279667e-001  0.000000e+000 -9.917785e-001
    outer loop
      vertex -5.543185e-001  2.000000e+000  7.948344e+000
      vertex -5.543185e-001  5.000000e+000  7.948344e+000
      vertex  1.284540e+000  5.000000e+000  7.711081e+000
    endloop
  endfacet
  facet normal -1.279667e-001  -0.000000e+000 -9.917785e-001
    outer loop
      vertex -5.543185e-001  2.000000e+000  7.948344e+000
      vertex  1.284540e+000  5.000000e+000  7.711081e+000
      vertex  1.284540e+000  2.000000e+000  7.711081e+000
    endloop
  endfacet
  facet normal -6.864800e-001  0.000000e+000 -7.271488e-001
    outer loop
      vertex  1.284540e+000  2.000000e+000  7.711081e+000
      vertex  1.284540e+000  5.000000e+000  7.711081e+000
      vertex  2.632748e+000  5.000000e+000  6.438277e+000
    endloop
  endfacet
  facet normal -6.864800e-001  -0.000000e+000 -7.271488e-001
    outer loop
      vertex  1.284540e+000  2.000000e+000  7.711081e+000
      vertex  2.632748e+000  5.000000e+000  6.438277e+000
      vertex  2.632748e+000  2.000000e+000  6.438277e+000
    endloop
  endfacet
  facet normal -9.036934e-001  0.000000e+000  4.281800e-001
    outer loop
      vertex  2.181446e+000  5.000000e+000  2.940560e+000
      vertex  2.975335e+000  2.000000e+000  4.616100e+000
      vertex  2.975335e+000  5.000000e+000  4.616100e+000
    endloop
  endfacet
  facet normal -9.827812e-001  -0.000000e+000 -1.847728e-001
    outer loop
      vertex  2.975335e+000  5.000000e+000  4.616100e+000
      vertex  2.975335e+000  2.000000e+000  4.616100e+000
      vertex  2.632748e+000  2.000000e+000  6.438277e+000
    endloop
  endfacet
  facet normal -9.827812e-001  0.000000e+000 -1.847728e-001
    outer loop
      vertex  2.975335e+000  5.000000e+000  4.616100e+000
      vertex  2.632748e+000  2.000000e+000  6.438277e+000
      vertex  2.632748e+000  5.000000e+000  6.438277e+000
    endloop
  endfacet
  facet normal -9.036934e-001  0.000000e+000  4.281800e-001
    outer loop
      vertex  2.975335e+000  2.000000e+000  4.616100e+000
      vertex  2.181446e+000  5.000000e+000  2.940560e+000
      vertex  2.181446e+000  2.000000e+000  2.940560e+000
    endloop
  endfacet
  facet normal -4.794255e-001  0.000000e+000  8.775826e-001
    outer loop
      vertex  2.181446e+000  2.000000e+000  2.940560e+000
      vertex  2.181446e+000  5.000000e+000  2.940560e+000
      vertex  5.543185e-001  5.000000e+000  2.051656e+000
    endloop
  endfacet
  facet normal -4.794255e-001  0.000000e+000  8.775826e-001
    outer loop
      vertex  2.181446e+000  2.000000e+000  2.940560e+000
      vertex  5.543185e-001  5.000000e+000  2.051656e+000
      vertex  5.543185e-001  2.000000e+000  2.051656e+000
    endloop
  endfacet
  facet normal  1.279667e-001  -0.000000e+000  9.917785e-001
    outer loop
      vertex  5.543185e-001  2.000000e+000  2.051656e+000
      vertex  5.543185e-001  5.000000e+000  2.051656e+000
      vertex -1.284540e+000  5.000000e+000  2.288919e+000
    endloop
  endfacet
  facet normal  1.279667e-001  0.000000e+000  9.917785e-001
    outer loop
      vertex  5.543185e-001  2.000000e+000  2.051656e+000
      vertex -1.284540e+000  5.000000e+000  2.288919e+000
      vertex -1.284540e+000  2.000000e+000  2.288919e+000
    endloop
  endfacet
  facet normal  6.864800e-001  -0.000000e+000  7.271487e-001
    outer loop
      vertex -1.284540e+000  2.000000e+000  2.288919e+000
      vertex -1.284540e+000  5.000000e+000  2.288919e+000
      vertex -2.632748e+000  5.000000e+000  3.561723e+000
    endloop
  endfacet
  facet normal  6.864800e-001  0.000000e+000  7.271487e-001
    outer loop
      vertex -1.284540e+000  2.000000e+000  2.288919e+000
      vertex -2.632748e+000  5.000000e+000  3.561723e+000
      vertex -2.632748e+000  2.000000e+000  3.561723e+000
    endloop
  endfacet
  facet normal  -0.000000e+000  1.000000e+000  0.000000e+000
    outer loop
      vertex -2.632748e+000  2.000000e+000  3.561723e+000
      vertex -2.975335e+000  2.000000e+000  5.383900e+000
      vertex -1.487302e+000  2.000000e+000  5.436386e+000
    endloop
  endfacet
  facet normal  0.000000e+000  1.000000e+000  0.000000e+000
    outer loop
      vertex -2.632748e+000  2.000000e+000  3.561723e+000
      vertex -1.487302e+000  2.000000e+000  5.436386e+000
      vertex -1.360253e+000  2.000000e+000  4.256890e+000
    endloop
  endfacet
  facet normal  0.000000e+000  1.000000e+000  0.000000e+000
    outer loop
      vertex -2.632748e+000  2.000000e+000  3.561723e+000
      vertex -1.360253e+000  2.000000e+000  4.256890e+000
      vertex -4.363863e-001  2.000000e+000  3.512698e+000
    endloop
  endfacet
  facet normal  0.000000e+000  1.000000e+000  0.000000e+000
    outer loop
      vertex -2.632748e+000  2.000000e+000  3.561723e+000
      vertex -4.363863e-001  2.000000e+000  3.512698e+000
      vertex -1.284540e+000  2.000000e+000  2.288919e+000
    endloop
  endfacet
  facet normal  0.000000e+000  1.000000e+000  0.000000e+000
    outer loop
      vertex -1.284540e+000  2.000000e+000  2.288919e+000
      vertex -4.363863e-001  2.000000e+000  3.512698e+000
      vertex  5.543185e-001  2.000000e+000  2.051656e+000
    endloop
  endfacet
  facet normal  0.000000e+000  1.000000e+000  -0.000000e+000
    outer loop
      vertex  5.543185e-001  2.000000e+000  2.051656e+000
      vertex -4.363863e-001  2.000000e+000  3.512698e+000
      vertex  7.431096e-001  2.000000e+000  3.639747e+000
    endloop
  endfacet
  facet normal  0.000000e+000  1.000000e+000  0.000000e+000
    outer loop
      vertex  5.543185e-001  2.000000e+000  2.051656e+000
      vertex  7.431096e-001  2.000000e+000  3.639747e+000
      vertex  2.181446e+000  2.000000e+000  2.940560e+000
    endloop
  endfacet
  facet normal  0.000000e+000  1.000000e+000  0.000000e+000
    outer loop
      vertex  2.181446e+000  2.000000e+000  2.940560e+000
      vertex  7.431096e-001  2.000000e+000  3.639747e+000
      vertex  1.487302e+000  2.000000e+000  4.563614e+000
    endloop
  endfacet
  facet normal  -0.000000e+000  9.999999e-001  0.000000e+000
    outer loop
      vertex  2.181446e+000  2.000000e+000  2.940560e+000
      vertex  1.487302e+000  2.000000e+000  4.563614e+000
      vertex  2.975335e+000  2.000000e+000  4.616100e+000
    endloop
  endfacet
  facet normal  0.000000e+000  1.000000e+000  0.000000e+000
    outer loop
      vertex  4.363863e-001  2.000000e+000  6.487302e+000
      vertex  1.284540e+000  2.000000e+000  7.711081e+000
      vertex  2.632748e+000  2.000000e+000  6.438277e+000
    endloop
  endfacet
  facet normal  0.000000e+000  1.000000e+000  -0.000000e+000
    outer loop
      vertex  1.284540e+000  2.000000e+000  7.711081e+000
      vertex  4.363863e-001  2.000000e+000  6.487302e+000
      vertex -5.543185e-001  2.000000e+000  7.948344e+000
    endloop
  endfacet
  facet normal  0.000000e+000  1.000000e+000  0.000000e+000
    outer loop
      vertex -5.543185e-001  2.000000e+000  7.948344e+000
      vertex  4.363863e-001  2.000000e+000  6.487302e+000
      vertex -7.431096e-001  2.000000e+000  6.360253e+000
    endloop
  endfacet
  facet normal  0.000000e+000  1.000000e+000  -0.000000e+000
    outer loop
      vertex -5.543185e-001  2.000000e+000  7.948344e+000
      vertex -7.431096e-001  2.000000e+000  6.360253e+000
      vertex -2.181446e+000  2.000000e+000  7.059440e+000
    endloop
  endfacet
  facet normal  0.000000e+000  9.999999e-001  0.000000e+000
    outer loop
      vertex -2.181446e+000  2.000000e+000  7.059440e+000
      vertex -7.431096e-001  2.000000e+000  6.360253e+000
      vertex -1.487302e+000  2.000000e+000  5.436386e+000
    endloop
  endfacet
  facet normal  0.000000e+000  1.000000e+000  0.000000e+000
    outer loop
      vertex -2.181446e+000  2.000000e+000  7.059440e+000
      vertex -1.487302e+000  2.000000e+000  5.436386e+000
      vertex -2.975335e+000  2.000000e+000  5.383900e+000
    endloop
  endfacet
  facet normal  0.000000e+000  1.000000e+000  0.000000e+000
    outer loop
      vertex  1.487302e+000  2.000000e+000  4.563614e+000
      vertex  1.360253e+000  2.000000e+000  5.743110e+000
      vertex  2.975335e+000  2.000000e+000  4.616100e+000
    endloop
  endfacet
  facet normal  0.000000e+000  1.000000e+000  0.000000e+000
    outer loop
      vertex  2.975335e+000  2.000000e+000  4.616100e+000
      vertex  1.360253e+000  2.000000e+000  5.743110e+000
      vertex  4.363863e-001  2.000000e+000  6.487302e+000
    endloop
  endfacet
  facet normal  0.000000e+000  1.000000e+000  0.000000e+000
    outer loop
      vertex  2.975335e+000  2.000000e+000  4.616100e+000
      vertex  4.363863e-001  2.000000e+000  6.487302e+000
      vertex  2.632748e+000  2.000000e+000  6.438277e+000
    endloop
  endfacet
  facet normal  7.071068e-001 -7.071068e-001  0.000000e+000
    outer loop
      vertex  6.000000e+000  0.000000e+000  0.000000e+000
      vertex  1.050000e+001  4.500000e+000  0.000000e+000
      vertex  6.000000e+000  0.000000e+000  3.000000e+001
    endloop
  endfacet
  facet normal  7.071068e-001 -7.071068e-001  0.000000e+000
    outer loop
      vertex  6.000000e+000  0.000000e+000  3.000000e+001
      vertex  1.050000e+001  4.500000e+000  0.000000e+000
      vertex  1.050000e+001  4.500000e+000  3.000000e+001
    endloop
  endfacet
  facet normal -7.071068e-001 -7.071068e-001  0.000000e+000
    outer loop
      vertex -1.050000e+001  4.500000e+000  0.000000e+000
      vertex -6.000000e+000  0.000000e+000  0.000000e+000
      vertex -1.050000e+001  4.500000e+000  3.000000e+001
    endloop
  endfacet
  facet normal -7.071068e-001 -7.071068e-001  0.000000e+000
    outer loop
      vertex -1.050000e+001  4.500000e+000  3.000000e+001
      vertex -6.000000e+000  0.000000e+000  0.000000e+000
      vertex -6.000000e+000  0.000000e+000  3.000000e+001
    endloop
  endfacet
  facet normal  0.000000e+000  1.000000e+000  0.000000e+000
    outer loop
      vertex -3.500000e+000  8.000000e+000  0.000000e+000
      vertex -1.050000e+001  8.000000e+000  0.000000e+000
      vertex -3.500000e+000  8.000000e+000  1.200000e+001
    endloop
  endfacet
  facet normal  0.000000e+000  1.000000e+000  0.000000e+000
    outer loop
      vertex -3.500000e+000  8.000000e+000  1.200000e+001
      vertex -1.050000e+001  8.000000e+000  0.000000e+000
      vertex -1.050000e+001  8.000000e+000  1.200000e+001
    endloop
  endfacet
  facet normal  0.000000e+000  1.000000e+000  0.000000e+000
    outer loop
      vertex -3.500000e+000  8.000000e+000  1.800000e+001
      vertex -1.050000e+001  8.000000e+000  1.800000e+001
      vertex -3.500000e+000  8.000000e+000  3.000000e+001
    endloop
  endfacet
  facet normal  0.000000e+000  1.000000e+000  0.000000e+000
    outer loop
      vertex -3.500000e+000  8.000000e+000  3.000000e+001
      vertex -1.050000e+001  8.000000e+000  1.800000e+001
      vertex -1.050000e+001  8.000000e+000  3.000000e+001
    endloop
  endfacet
  facet normal  0.000000e+000  1.000000e+000  0.000000e+000
    outer loop
      vertex  1.050000e+001  8.000000e+000  1.800000e+001
      vertex  3.500000e+000  8.000000e+000  1.800000e+001
      vertex  1.050000e+001  8.000000e+000  3.000000e+001
    endloop
  endfacet
  facet normal  0.000000e+000  1.000000e+000  0.000000e+000
    outer loop
      vertex  1.050000e+001  8.000000e+000  3.000000e+001
      vertex  3.500000e+000  8.000000e+000  1.800000e+001
      vertex  3.500000e+000  8.000000e+000  3.000000e+001
    endloop
  endfacet
  facet normal  0.000000e+000  1.000000e+000  0.000000e+000
    outer loop
      vertex  1.050000e+001  8.000000e+000  0.000000e+000
      vertex  3.500000e+000  8.000000e+000  0.000000e+000
      vertex  1.050000e+001  8.000000e+000  1.200000e+001
    endloop
  endfacet
  facet normal  0.000000e+000  1.000000e+000  0.000000e+000
    outer loop
      vertex  1.050000e+001  8.000000e+000  1.200000e+001
      vertex  3.500000e+000  8.000000e+000  0.000000e+000
      vertex  3.500000e+000  8.000000e+000  1.200000e+001
    endloop
  endfacet
  facet normal  1.000000e+000  0.000000e+000  0.000000e+000
    outer loop
      vertex  1.050000e+001  8.000000e+000  0.000000e+000
      vertex  1.050000e+001  8.000000e+000  1.200000e+001
      vertex  1.050000e+001  4.500000e+000  0.000000e+000
    endloop
  endfacet
  facet normal  1.000000e+000  0.000000e+000  0.000000e+000
    outer loop
      vertex  1.050000e+001  4.500000e+000  0.000000e+000
      vertex  1.050000e+001  8.000000e+000  1.200000e+001
      vertex  1.050000e+001  5.000000e+000  1.200000e+001
    endloop
  endfacet
  facet normal  1.000000e+000  0.000000e+000  0.000000e+000
    outer loop
      vertex  1.050000e+001  4.500000e+000  0.000000e+000
      vertex  1.050000e+001  5.000000e+000  1.200000e+001
      vertex  1.050000e+001  4.500000e+000  3.000000e+001
    endloop
  endfacet
  facet normal  1.000000e+000  0.000000e+000  0.000000e+000
    outer loop
      vertex  1.050000e+001  4.500000e+000  3.000000e+001
      vertex  1.050000e+001  5.000000e+000  1.200000e+001
      vertex  1.050000e+001  5.000000e+000  1.800000e+001
    endloop
  endfacet
  facet normal  1.000000e+000  0.000000e+000  -0.000000e+000
    outer loop
      vertex  1.050000e+001  4.500000e+000  3.000000e+001
      vertex  1.050000e+001  5.000000e+000  1.800000e+001
      vertex  1.050000e+001  8.000000e+000  3.000000e+001
    endloop
  endfacet
  facet normal  1.000000e+000  0.000000e+000  0.000000e+000
    outer loop
      vertex  1.050000e+001  8.000000e+000  3.000000e+001
      vertex  1.050000e+001  5.000000e+000  1.800000e+001
      vertex  1.050000e+001  8.000000e+000  1.800000e+001
    endloop
  endfacet
  facet normal  0.000000e+000  0.000000e+000  1.000000e+000
    outer loop
      vertex -4.000000e+000  0.000000e+000  3.000000e+001
      vertex -4.000000e+000 -4.527864e+000  3.000000e+001
      vertex -1.445106e+000 -3.176627e+000  3.000000e+001
    endloop
  endfacet
  facet normal  0.000000e+000  -0.000000e+000  1.000000e+000
    outer loop
      vertex -4.000000e+000  0.000000e+000  3.000000e+001
      vertex -1.445106e+000 -3.176627e+000  3.000000e+001
      vertex  1.445106e+000 -3.176627e+000  3.000000e+001
    endloop
  endfacet
  facet normal  -0.000000e+000  -0.000000e+000  1.000000e+000
    outer loop
      vertex -4.000000e+000  0.000000e+000  3.000000e+001
      vertex  1.445106e+000 -3.176627e+000  3.000000e+001
      vertex  4.000000e+000 -4.527864e+000  3.000000e+001
    endloop
  endfacet
  facet normal  0.000000e+000  -0.000000e+000  1.000000e+000
    outer loop
      vertex -4.000000e+000  0.000000e+000  3.000000e+001
      vertex  4.000000e+000 -4.527864e+000  3.000000e+001
      vertex  4.000000e+000  0.000000e+000  3.000000e+001
    endloop
  endfacet
  facet normal  0.000000e+000  0.000000e+000  1.000000e+000
    outer loop
      vertex  1.050000e+001  4.500000e+000  3.000000e+001
      vertex  1.050000e+001  8.000000e+000  3.000000e+001
      vertex  3.500000e+000  8.000000e+000  3.000000e+001
    endloop
  endfacet
  facet normal  0.000000e+000  0.000000e+000  1.000000e+000
    outer loop
      vertex  1.050000e+001  4.500000e+000  3.000000e+001
      vertex  3.500000e+000  8.000000e+000  3.000000e+001
      vertex  3.500000e+000  5.000000e+000  3.000000e+001
    endloop
  endfacet
  facet normal  0.000000e+000  0.000000e+000  1.000000e+000
    outer loop
      vertex  1.050000e+001  4.500000e+000  3.000000e+001
      vertex  3.500000e+000  5.000000e+000  3.000000e+001
      vertex -3.500000e+000  5.000000e+000  3.000000e+001
    endloop
  endfacet
  facet normal  0.000000e+000  0.000000e+000  1.000000e+000
    outer loop
      vertex  1.050000e+001  4.500000e+000  3.000000e+001
      vertex -3.500000e+000  5.000000e+000  3.000000e+001
      vertex -1.050000e+001  4.500000e+000  3.000000e+001
    endloop
  endfacet
  facet normal  -0.000000e+000  0.000000e+000  9.999999e-001
    outer loop
      vertex  1.050000e+001  4.500000e+000  3.000000e+001
      vertex -1.050000e+001  4.500000e+000  3.000000e+001
      vertex -6.000000e+000  0.000000e+000  3.000000e+001
    endloop
  endfacet
  facet normal  0.000000e+000  0.000000e+000  1.000000e+000
    outer loop
      vertex  1.050000e+001  4.500000e+000  3.000000e+001
      vertex -6.000000e+000  0.000000e+000  3.000000e+001
      vertex -4.000000e+000  0.000000e+000  3.000000e+001
    endloop
  endfacet
  facet normal  0.000000e+000  0.000000e+000  1.000000e+000
    outer loop
      vertex  1.050000e+001  4.500000e+000  3.000000e+001
      vertex -4.000000e+000  0.000000e+000  3.000000e+001
      vertex  4.000000e+000  0.000000e+000  3.000000e+001
    endloop
  endfacet
  facet normal  0.000000e+000  0.000000e+000  1.000000e+000
    outer loop
      vertex  1.050000e+001  4.500000e+000  3.000000e+001
      vertex  4.000000e+000  0.000000e+000  3.000000e+001
      vertex  6.000000e+000  0.000000e+000  3.000000e+001
    endloop
  endfacet
  facet normal  0.000000e+000  0.000000e+000  1.000000e+000
    outer loop
      vertex -1.050000e+001  4.500000e+000  3.000000e+001
      vertex -3.500000e+000  5.000000e+000  3.000000e+001
      vertex -1.050000e+001  8.000000e+000  3.000000e+001
    endloop
  endfacet
  facet normal  -0.000000e+000  0.000000e+000  1.000000e+000
    outer loop
      vertex -1.050000e+001  8.000000e+000  3.000000e+001
      vertex -3.500000e+000  5.000000e+000  3.000000e+001
      vertex -3.500000e+000  8.000000e+000  3.000000e+001
    endloop
  endfacet
  facet normal -1.000000e+000  0.000000e+000  0.000000e+000
    outer loop
      vertex -1.050000e+001  8.000000e+000  1.200000e+001
      vertex -1.050000e+001  8.000000e+000  0.000000e+000
      vertex -1.050000e+001  5.000000e+000  1.200000e+001
    endloop
  endfacet
  facet normal -1.000000e+000  0.000000e+000  -0.000000e+000
    outer loop
      vertex -1.050000e+001  5.000000e+000  1.200000e+001
      vertex -1.050000e+001  8.000000e+000  0.000000e+000
      vertex -1.050000e+001  4.500000e+000  0.000000e+000
    endloop
  endfacet
  facet normal -1.000000e+000  0.000000e+000  0.000000e+000
    outer loop
      vertex -1.050000e+001  5.000000e+000  1.200000e+001
      vertex -1.050000e+001  4.500000e+000  0.000000e+000
      vertex -1.050000e+001  5.000000e+000  1.800000e+001
    endloop
  endfacet
  facet normal -1.000000e+000  -0.000000e+000  0.000000e+000
    outer loop
      vertex -1.050000e+001  5.000000e+000  1.800000e+001
      vertex -1.050000e+001  4.500000e+000  0.000000e+000
      vertex -1.050000e+001  4.500000e+000  3.000000e+001
    endloop
  endfacet
  facet normal -1.000000e+000  0.000000e+000  0.000000e+000
    outer loop
      vertex -1.050000e+001  5.000000e+000  1.800000e+001
      vertex -1.050000e+001  4.500000e+000  3.000000e+001
      vertex -1.050000e+001  8.000000e+000  1.800000e+001
    endloop
  endfacet
  facet normal -1.000000e+000  0.000000e+000  0.000000e+000
    outer loop
      vertex -1.050000e+001  8.000000e+000  1.800000e+001
      vertex -1.050000e+001  4.500000e+000  3.000000e+001
      vertex -1.050000e+001  8.000000e+000  3.000000e+001
    endloop
  endfacet
  facet normal  -0.000000e+000  -0.000000e+000 -1.000000e+000
    outer loop
      vertex -4.000000e+000  0.000000e+000  0.000000e+000
      vertex  4.000000e+000  0.000000e+000  0.000000e+000
      vertex  4.000000e+000 -4.527864e+000  0.000000e+000
    endloop
  endfacet
  facet normal  0.000000e+000  0.000000e+000 -1.000000e+000
    outer loop
      vertex -4.000000e+000  0.000000e+000  0.000000e+000
      vertex  4.000000e+000 -4.527864e+000  0.000000e+000
      vertex  1.445106e+000 -3.176627e+000  0.000000e+000
    endloop
  endfacet
  facet normal  0.000000e+000  0.000000e+000 -1.000000e+000
    outer loop
      vertex -4.000000e+000  0.000000e+000  0.000000e+000
      vertex  1.445106e+000 -3.176627e+000  0.000000e+000
      vertex -1.445106e+000 -3.176627e+000  0.000000e+000
    endloop
  endfacet
  facet normal  -0.000000e+000  0.000000e+000 -1.000000e+000
    outer loop
      vertex -4.000000e+000  0.000000e+000  0.000000e+000
      vertex -1.445106e+000 -3.176627e+000  0.000000e+000
      vertex -4.000000e+000 -4.527864e+000  0.000000e+000
    endloop
  endfacet
  facet normal  0.000000e+000  0.000000e+000 -1.000000e+000
    outer loop
      vertex  1.050000e+001  4.500000e+000  0.000000e+000
      vertex  6.000000e+000  0.000000e+000  0.000000e+000
      vertex  4.000000e+000  0.000000e+000  0.000000e+000
    endloop
  endfacet
  facet normal  0.000000e+000  0.000000e+000 -1.000000e+000
    outer loop
      vertex  1.050000e+001  4.500000e+000  0.000000e+000
      vertex  4.000000e+000  0.000000e+000  0.000000e+000
      vertex -4.000000e+000  0.000000e+000  0.000000e+000
    endloop
  endfacet
  facet normal  0.000000e+000  0.000000e+000 -1.000000e+000
    outer loop
      vertex  1.050000e+001  4.500000e+000  0.000000e+000
      vertex -4.000000e+000  0.000000e+000  0.000000e+000
      vertex -6.000000e+000  0.000000e+000  0.000000e+000
    endloop
  endfacet
  facet normal  0.000000e+000  0.000000e+000 -9.999999e-001
    outer loop
      vertex  1.050000e+001  4.500000e+000  0.000000e+000
      vertex -6.000000e+000  0.000000e+000  0.000000e+000
      vertex -1.050000e+001  4.500000e+000  0.000000e+000
    endloop
  endfacet
  facet normal  0.000000e+000  0.000000e+000 -1.000000e+000
    outer loop
      vertex  1.050000e+001  4.500000e+000  0.000000e+000
      vertex -1.050000e+001  4.500000e+000  0.000000e+000
      vertex -3.500000e+000  5.000000e+000  0.000000e+000
    endloop
  endfacet
  facet normal  0.000000e+000  0.000000e+000 -1.000000e+000
    outer loop
      vertex  1.050000e+001  4.500000e+000  0.000000e+000
      vertex -3.500000e+000  5.000000e+000  0.000000e+000
      vertex  3.500000e+000  5.000000e+000  0.000000e+000
    endloop
  endfacet
  facet normal  0.000000e+000  0.000000e+000 -1.000000e+000
    outer loop
      vertex  1.050000e+001  4.500000e+000  0.000000e+000
      vertex  3.500000e+000  5.000000e+000  0.000000e+000
      vertex  3.500000e+000  8.000000e+000  0.000000e+000
    endloop
  endfacet
  facet normal  0.000000e+000  0.000000e+000 -1.000000e+000
    outer loop
      vertex  1.050000e+001  4.500000e+000  0.000000e+000
      vertex  3.500000e+000  8.000000e+000  0.000000e+000
      vertex  1.050000e+001  8.000000e+000  0.000000e+000
    endloop
  endfacet
  facet normal  0.000000e+000  0.000000e+000 -1.000000e+000
    outer loop
      vertex -1.050000e+001  4.500000e+000  0.000000e+000
      vertex -1.050000e+001  8.000000e+000  0.000000e+000
      vertex -3.500000e+000  5.000000e+000  0.000000e+000
    endloop
  endfacet
  facet normal  0.000000e+000  0.000000e+000 -1.000000e+000
    outer loop
      vertex -3.500000e+000  5.000000e+000  0.000000e+000
      vertex -1.050000e+001  8.000000e+000  0.000000e+000
      vertex -3.500000e+000  8.000000e+000  0.000000e+000
    endloop
  endfacet
  facet normal  1.000000e+000  -0.000000e+000  0.000000e+000
    outer loop
      vertex -3.500000e+000  8.000000e+000  1.200000e+001
      vertex -3.500000e+000  5.000000e+000  1.200000e+001
      vertex -3.500000e+000  8.000000e+000  0.000000e+000
    endloop
  endfacet
  facet normal  1.000000e+000  0.000000e+000  0.000000e+000
    outer loop
      vertex -3.500000e+000  8.000000e+000  0.000000e+000
      vertex -3.500000e+000  5.000000e+000  1.200000e+001
      vertex -3.500000e+000  5.000000e+000  0.000000e+000
    endloop
  endfacet
  facet normal  -0.000000e+000  0.000000e+000  1.000000e+000
    outer loop
      vertex -3.500000e+000  8.000000e+000  1.200000e+001
      vertex -1.050000e+001  8.000000e+000  1.200000e+001
      vertex -3.500000e+000  5.000000e+000  1.200000e+001
    endloop
  endfacet
  facet normal  0.000000e+000  0.000000e+000  1.000000e+000
    outer loop
      vertex -3.500000e+000  5.000000e+000  1.200000e+001
      vertex -1.050000e+001  8.000000e+000  1.200000e+001
      vertex -1.050000e+001  5.000000e+000  1.200000e+001
    endloop
  endfacet
  facet normal  0.000000e+000  0.000000e+000 -1.000000e+000
    outer loop
      vertex -3.500000e+000  8.000000e+000  1.800000e+001
      vertex -3.500000e+000  5.000000e+000  1.800000e+001
      vertex -1.050000e+001  8.000000e+000  1.800000e+001
    endloop
  endfacet
  facet normal  0.000000e+000  0.000000e+000 -1.000000e+000
    outer loop
      vertex -1.050000e+001  8.000000e+000  1.800000e+001
      vertex -3.500000e+000  5.000000e+000  1.800000e+001
      vertex -1.050000e+001  5.000000e+000  1.800000e+001
    endloop
  endfacet
  facet normal  1.000000e+000  -0.000000e+000  0.000000e+000
    outer loop
      vertex -3.500000e+000  8.000000e+000  3.000000e+001
      vertex -3.500000e+000  5.000000e+000  3.000000e+001
      vertex -3.500000e+000  8.000000e+000  1.800000e+001
    endloop
  endfacet
  facet normal  1.000000e+000  0.000000e+000  0.000000e+000
    outer loop
      vertex -3.500000e+000  8.000000e+000  1.800000e+001
      vertex -3.500000e+000  5.000000e+000  3.000000e+001
      vertex -3.500000e+000  5.000000e+000  1.800000e+001
    endloop
  endfacet
  facet normal -1.000000e+000  0.000000e+000  0.000000e+000
    outer loop
      vertex  3.500000e+000  8.000000e+000  3.000000e+001
      vertex  3.500000e+000  8.000000e+000  1.800000e+001
      vertex  3.500000e+000  5.000000e+000  3.000000e+001
    endloop
  endfacet
  facet normal -1.000000e+000  0.000000e+000  0.000000e+000
    outer loop
      vertex  3.500000e+000  5.000000e+000  3.000000e+001
      vertex  3.500000e+000  8.000000e+000  1.800000e+001
      vertex  3.500000e+000  5.000000e+000  1.800000e+001
    endloop
  endfacet
  facet normal  0.000000e+000  0.000000e+000 -1.000000e+000
    outer loop
      vertex  1.050000e+001  8.000000e+000  1.800000e+001
      vertex  1.050000e+001  5.000000e+000  1.800000e+001
      vertex  3.500000e+000  8.000000e+000  1.800000e+001
    endloop
  endfacet
  facet normal  0.000000e+000  0.000000e+000 -1.000000e+000
    outer loop
      vertex  3.500000e+000  8.000000e+000  1.800000e+001
      vertex  1.050000e+001  5.000000e+000  1.800000e+001
      vertex  3.500000e+000  5.000000e+000  1.800000e+001
    endloop
  endfacet
  facet normal  -0.000000e+000  0.000000e+000  1.000000e+000
    outer loop
      vertex  1.050000e+001  8.000000e+000  1.200000e+001
      vertex  3.500000e+000  8.000000e+000  1.200000e+001
      vertex  1.050000e+001  5.000000e+000  1.200000e+001
    endloop
  endfacet
  facet normal  0.000000e+000  0.000000e+000  1.000000e+000
    outer loop
      vertex  1.050000e+001  5.000000e+000  1.200000e+001
      vertex  3.500000e+000  8.000000e+000  1.200000e+001
      vertex  3.500000e+000  5.000000e+000  1.200000e+001
    endloop
  endfacet
  facet normal -1.000000e+000  0.000000e+000  0.000000e+000
    outer loop
      vertex  3.500000e+000  8.000000e+000  1.200000e+001
      vertex  3.500000e+000  8.000000e+000  0.000000e+000
      vertex  3.500000e+000  5.000000e+000  1.200000e+001
    endloop
  endfacet
  facet normal -1.000000e+000  0.000000e+000  0.000000e+000
    outer loop
      vertex  3.500000e+000  5.000000e+000  1.200000e+001
      vertex  3.500000e+000  8.000000e+000  0.000000e+000
      vertex  3.500000e+000  5.000000e+000  0.000000e+000
    endloop
  endfacet
  facet normal  0.000000e+000 -1.000000e+000  0.000000e+000
    outer loop
      vertex  4.000000e+000  0.000000e+000  0.000000e+000
      vertex  6.000000e+000  0.000000e+000  0.000000e+000
      vertex  4.000000e+000  0.000000e+000  3.000000e+001
    endloop
  endfacet
  facet normal  0.000000e+000 -1.000000e+000  0.000000e+000
    outer loop
      vertex  4.000000e+000  0.000000e+000  3.000000e+001
      vertex  6.000000e+000  0.000000e+000  0.000000e+000
      vertex  6.000000e+000  0.000000e+000  3.000000e+001
    endloop
  endfacet
  facet normal  0.000000e+000 -1.000000e+000  0.000000e+000
    outer loop
      vertex -6.000000e+000  0.000000e+000  0.000000e+000
      vertex -4.000000e+000  0.000000e+000  0.000000e+000
      vertex -6.000000e+000  0.000000e+000  3.000000e+001
    endloop
  endfacet
  facet normal  0.000000e+000 -1.000000e+000  0.000000e+000
    outer loop
      vertex -6.000000e+000  0.000000e+000  3.000000e+001
      vertex -4.000000e+000  0.000000e+000  0.000000e+000
      vertex -4.000000e+000  0.000000e+000  3.000000e+001
    endloop
  endfacet
  facet normal  1.000000e+000  0.000000e+000  0.000000e+000
    outer loop
      vertex  4.000000e+000 -4.527864e+000  0.000000e+000
      vertex  4.000000e+000  0.000000e+000  0.000000e+000
      vertex  4.000000e+000 -4.527864e+000  3.000000e+001
    endloop
  endfacet
  facet normal  1.000000e+000  -0.000000e+000  0.000000e+000
    outer loop
      vertex  4.000000e+000 -4.527864e+000  3.000000e+001
      vertex  4.000000e+000  0.000000e+000  0.000000e+000
      vertex  4.000000e+000  0.000000e+000  3.000000e+001
    endloop
  endfacet
  facet normal -1.000000e+000  0.000000e+000  0.000000e+000
    outer loop
      vertex -4.000000e+000  0.000000e+000  0.000000e+000
      vertex -4.000000e+000 -4.527864e+000  0.000000e+000
      vertex -4.000000e+000  0.000000e+000  3.000000e+001
    endloop
  endfacet
  facet normal -1.000000e+000  -0.000000e+000  0.000000e+000
    outer loop
      vertex -4.000000e+000  0.000000e+000  3.000000e+001
      vertex -4.000000e+000 -4.527864e+000  0.000000e+000
      vertex -4.000000e+000 -4.527864e+000  3.000000e+001
    endloop
  endfacet
endsolid CATIA STL
