solid CATIA STL
  facet normal  0.000000e+000  0.000000e+000  1.000000e+000
    outer loop
      vertex  3.000000e+001 -2.000000e+001  1.000000e+001
      vertex  3.000000e+001  3.000000e+001  1.000000e+001
      vertex  5.000000e+000  5.000000e+000  1.000000e+001
    endloop
  endfacet
  facet normal  0.000000e+000  0.000000e+000  1.000000e+000
    outer loop
      vertex  3.000000e+001 -2.000000e+001  1.000000e+001
      vertex  5.000000e+000  5.000000e+000  1.000000e+001
      vertex  5.000000e+000 -5.000000e+000  1.000000e+001
    endloop
  endfacet
  facet normal  0.000000e+000  0.000000e+000  1.000000e+000
    outer loop
      vertex  3.000000e+001 -2.000000e+001  1.000000e+001
      vertex  5.000000e+000 -5.000000e+000  1.000000e+001
      vertex  4.330127e+000 -7.500000e+000  1.000000e+001
    endloop
  endfacet
  facet normal  0.000000e+000  0.000000e+000  1.000000e+000
    outer loop
      vertex  3.000000e+001 -2.000000e+001  1.000000e+001
      vertex  4.330127e+000 -7.500000e+000  1.000000e+001
      vertex  2.500000e+000 -9.330127e+000  1.000000e+001
    endloop
  endfacet
  facet normal  0.000000e+000  0.000000e+000  1.000000e+000
    outer loop
      vertex  3.000000e+001 -2.000000e+001  1.000000e+001
      vertex  2.500000e+000 -9.330127e+000  1.000000e+001
      vertex -9.184850e-016 -1.000000e+001  1.000000e+001
    endloop
  endfacet
  facet normal  0.000000e+000  0.000000e+000  1.000000e+000
    outer loop
      vertex  3.000000e+001 -2.000000e+001  1.000000e+001
      vertex -9.184850e-016 -1.000000e+001  1.000000e+001
      vertex -3.000000e+001 -2.000000e+001  1.000000e+001
    endloop
  endfacet
  facet normal  0.000000e+000  0.000000e+000  1.000000e+000
    outer loop
      vertex -3.000000e+001 -2.000000e+001  1.000000e+001
      vertex -9.184850e-016 -1.000000e+001  1.000000e+001
      vertex -2.500000e+000 -9.330127e+000  1.000000e+001
    endloop
  endfacet
  facet normal  0.000000e+000  0.000000e+000  1.000000e+000
    outer loop
      vertex -3.000000e+001 -2.000000e+001  1.000000e+001
      vertex -2.500000e+000 -9.330127e+000  1.000000e+001
      vertex -4.330127e+000 -7.500000e+000  1.000000e+001
    endloop
  endfacet
  facet normal  0.000000e+000  0.000000e+000  1.000000e+000
    outer loop
      vertex -3.000000e+001 -2.000000e+001  1.000000e+001
      vertex -4.330127e+000 -7.500000e+000  1.000000e+001
      vertex -5.000000e+000 -5.000000e+000  1.000000e+001
    endloop
  endfacet
  facet normal  0.000000e+000  -0.000000e+000  1.000000e+000
    outer loop
      vertex -3.000000e+001 -2.000000e+001  1.000000e+001
      vertex -5.000000e+000 -5.000000e+000  1.000000e+001
      vertex -5.000000e+000  5.000000e+000  1.000000e+001
    endloop
  endfacet
  facet normal  0.000000e+000  0.000000e+000  1.000000e+000
    outer loop
      vertex -3.000000e+001 -2.000000e+001  1.000000e+001
      vertex -5.000000e+000  5.000000e+000  1.000000e+001
      vertex -3.000000e+001  3.000000e+001  1.000000e+001
    endloop
  endfacet
  facet normal  0.000000e+000  0.000000e+000 -1.000000e+000
    outer loop
      vertex -3.000000e+001 -2.000000e+001  0.000000e+000
      vertex -3.000000e+001  3.000000e+001  0.000000e+000
      vertex -4.500000e+000  4.500000e+000  0.000000e+000
    endloop
  endfacet
  facet normal  0.000000e+000  0.000000e+000 -1.000000e+000
    outer loop
      vertex  3.000000e+001  3.000000e+001  0.000000e+000
      vertex  3.000000e+001 -2.000000e+001  0.000000e+000
      vertex  4.500000e+000  4.500000e+000  0.000000e+000
    endloop
  endfacet
  facet normal  0.000000e+000  -0.000000e+000 -1.000000e+000
    outer loop
      vertex  4.500000e+000  4.500000e+000  0.000000e+000
      vertex  3.000000e+001 -2.000000e+001  0.000000e+000
      vertex -3.000000e+001 -2.000000e+001  0.000000e+000
    endloop
  endfacet
  facet normal  0.000000e+000  0.000000e+000 -1.000000e+000
    outer loop
      vertex  4.500000e+000  4.500000e+000  0.000000e+000
      vertex -3.000000e+001 -2.000000e+001  0.000000e+000
      vertex -4.500000e+000  4.500000e+000  0.000000e+000
    endloop
  endfacet
  facet normal -7.071068e-001  7.071068e-001  0.000000e+000
    outer loop
      vertex  4.500000e+000  4.500000e+000  0.000000e+000
      vertex  5.000000e+000  5.000000e+000  5.000000e-001
      vertex  3.000000e+001  3.000000e+001  0.000000e+000
    endloop
  endfacet
  facet normal -7.071068e-001  7.071068e-001  0.000000e+000
    outer loop
      vertex  3.000000e+001  3.000000e+001  0.000000e+000
      vertex  5.000000e+000  5.000000e+000  5.000000e-001
      vertex  5.000000e+000  5.000000e+000  1.000000e+001
    endloop
  endfacet
  facet normal -7.071067e-001  7.071067e-001  0.000000e+000
    outer loop
      vertex  3.000000e+001  3.000000e+001  0.000000e+000
      vertex  5.000000e+000  5.000000e+000  1.000000e+001
      vertex  3.000000e+001  3.000000e+001  1.000000e+001
    endloop
  endfacet
  facet normal  7.071068e-001  7.071068e-001  0.000000e+000
    outer loop
      vertex -4.500000e+000  4.500000e+000  0.000000e+000
      vertex -3.000000e+001  3.000000e+001  0.000000e+000
      vertex -5.000000e+000  5.000000e+000  5.000000e-001
    endloop
  endfacet
  facet normal  7.071067e-001  7.071067e-001  0.000000e+000
    outer loop
      vertex -5.000000e+000  5.000000e+000  5.000000e-001
      vertex -3.000000e+001  3.000000e+001  0.000000e+000
      vertex -3.000000e+001  3.000000e+001  1.000000e+001
    endloop
  endfacet
  facet normal  7.071068e-001  7.071068e-001  0.000000e+000
    outer loop
      vertex -5.000000e+000  5.000000e+000  5.000000e-001
      vertex -3.000000e+001  3.000000e+001  1.000000e+001
      vertex -5.000000e+000  5.000000e+000  1.000000e+001
    endloop
  endfacet
  facet normal -1.000000e+000  -0.000000e+000  0.000000e+000
    outer loop
      vertex -3.000000e+001 -2.000000e+001  1.000000e+001
      vertex -3.000000e+001  3.000000e+001  1.000000e+001
      vertex -3.000000e+001 -2.000000e+001  0.000000e+000
    endloop
  endfacet
  facet normal -1.000000e+000  0.000000e+000  0.000000e+000
    outer loop
      vertex -3.000000e+001 -2.000000e+001  0.000000e+000
      vertex -3.000000e+001  3.000000e+001  1.000000e+001
      vertex -3.000000e+001  3.000000e+001  0.000000e+000
    endloop
  endfacet
  facet normal  1.000000e+000  -0.000000e+000  0.000000e+000
    outer loop
      vertex  3.000000e+001  3.000000e+001  1.000000e+001
      vertex  3.000000e+001 -2.000000e+001  1.000000e+001
      vertex  3.000000e+001  3.000000e+001  0.000000e+000
    endloop
  endfacet
  facet normal  1.000000e+000  0.000000e+000  0.000000e+000
    outer loop
      vertex  3.000000e+001  3.000000e+001  0.000000e+000
      vertex  3.000000e+001 -2.000000e+001  1.000000e+001
      vertex  3.000000e+001 -2.000000e+001  0.000000e+000
    endloop
  endfacet
  facet normal  0.000000e+000  7.071067e-001 -7.071067e-001
    outer loop
      vertex -4.500000e+000  4.500000e+000  0.000000e+000
      vertex -5.000000e+000  5.000000e+000  5.000000e-001
      vertex  4.500000e+000  4.500000e+000  0.000000e+000
    endloop
  endfacet
  facet normal  0.000000e+000  7.071068e-001 -7.071068e-001
    outer loop
      vertex  4.500000e+000  4.500000e+000  0.000000e+000
      vertex -5.000000e+000  5.000000e+000  5.000000e-001
      vertex  5.000000e+000  5.000000e+000  5.000000e-001
    endloop
  endfacet
  facet normal  -0.000000e+000  0.000000e+000  1.000000e+000
    outer loop
      vertex  5.000000e+000  4.500000e+000  1.000000e+000
      vertex -5.000000e+000  4.500000e+000  1.000000e+000
      vertex  5.000000e+000 -5.000000e+000  1.000000e+000
    endloop
  endfacet
  facet normal  0.000000e+000  0.000000e+000  1.000000e+000
    outer loop
      vertex  5.000000e+000 -5.000000e+000  1.000000e+000
      vertex -5.000000e+000  4.500000e+000  1.000000e+000
      vertex -5.000000e+000 -5.000000e+000  1.000000e+000
    endloop
  endfacet
  facet normal  -0.000000e+000  0.000000e+000  1.000000e+000
    outer loop
      vertex  5.000000e+000 -5.000000e+000  1.000000e+000
      vertex -5.000000e+000 -5.000000e+000  1.000000e+000
      vertex  4.330127e+000 -7.500000e+000  1.000000e+000
    endloop
  endfacet
  facet normal  0.000000e+000  0.000000e+000  1.000000e+000
    outer loop
      vertex  4.330127e+000 -7.500000e+000  1.000000e+000
      vertex -5.000000e+000 -5.000000e+000  1.000000e+000
      vertex -4.330127e+000 -7.500000e+000  1.000000e+000
    endloop
  endfacet
  facet normal  -0.000000e+000  0.000000e+000  1.000000e+000
    outer loop
      vertex  4.330127e+000 -7.500000e+000  1.000000e+000
      vertex -4.330127e+000 -7.500000e+000  1.000000e+000
      vertex  2.500000e+000 -9.330127e+000  1.000000e+000
    endloop
  endfacet
  facet normal  0.000000e+000  0.000000e+000  1.000000e+000
    outer loop
      vertex  2.500000e+000 -9.330127e+000  1.000000e+000
      vertex -4.330127e+000 -7.500000e+000  1.000000e+000
      vertex -2.500000e+000 -9.330127e+000  1.000000e+000
    endloop
  endfacet
  facet normal  -0.000000e+000  0.000000e+000  1.000000e+000
    outer loop
      vertex  2.500000e+000 -9.330127e+000  1.000000e+000
      vertex -2.500000e+000 -9.330127e+000  1.000000e+000
      vertex -9.184850e-016 -1.000000e+001  1.000000e+000
    endloop
  endfacet
  facet normal  1.000000e+000  0.000000e+000  0.000000e+000
    outer loop
      vertex -5.000000e+000 -5.000000e+000  1.000000e+001
      vertex -5.000000e+000 -5.000000e+000  1.000000e+000
      vertex -5.000000e+000  5.000000e+000  1.000000e+001
    endloop
  endfacet
  facet normal  1.000000e+000  0.000000e+000  0.000000e+000
    outer loop
      vertex -5.000000e+000  5.000000e+000  1.000000e+001
      vertex -5.000000e+000 -5.000000e+000  1.000000e+000
      vertex -5.000000e+000  4.500000e+000  1.000000e+000
    endloop
  endfacet
  facet normal  1.000000e+000  -0.000000e+000  0.000000e+000
    outer loop
      vertex -5.000000e+000  5.000000e+000  1.000000e+001
      vertex -5.000000e+000  4.500000e+000  1.000000e+000
      vertex -5.000000e+000  5.000000e+000  5.000000e-001
    endloop
  endfacet
  facet normal -1.000000e+000  0.000000e+000  0.000000e+000
    outer loop
      vertex  5.000000e+000  5.000000e+000  5.000000e-001
      vertex  5.000000e+000  4.500000e+000  1.000000e+000
      vertex  5.000000e+000  5.000000e+000  1.000000e+001
    endloop
  endfacet
  facet normal -1.000000e+000  0.000000e+000  0.000000e+000
    outer loop
      vertex  5.000000e+000  5.000000e+000  1.000000e+001
      vertex  5.000000e+000  4.500000e+000  1.000000e+000
      vertex  5.000000e+000 -5.000000e+000  1.000000e+000
    endloop
  endfacet
  facet normal -1.000000e+000  0.000000e+000  0.000000e+000
    outer loop
      vertex  5.000000e+000  5.000000e+000  1.000000e+001
      vertex  5.000000e+000 -5.000000e+000  1.000000e+000
      vertex  5.000000e+000 -5.000000e+000  1.000000e+001
    endloop
  endfacet
  facet normal  0.000000e+000  7.071068e-001  7.071068e-001
    outer loop
      vertex  5.000000e+000  4.500000e+000  1.000000e+000
      vertex  5.000000e+000  5.000000e+000  5.000000e-001
      vertex -5.000000e+000  4.500000e+000  1.000000e+000
    endloop
  endfacet
  facet normal  0.000000e+000  7.071068e-001  7.071068e-001
    outer loop
      vertex -5.000000e+000  4.500000e+000  1.000000e+000
      vertex  5.000000e+000  5.000000e+000  5.000000e-001
      vertex -5.000000e+000  5.000000e+000  5.000000e-001
    endloop
  endfacet
  facet normal  0.000000e+000 -1.000000e+000  0.000000e+000
    outer loop
      vertex  1.965385e+001 -2.000000e+001  6.179766e+000
      vertex -1.882023e+001 -2.000000e+001  5.346153e+000
      vertex  1.892101e+001 -2.000000e+001  5.589454e+000
    endloop
  endfacet
  facet normal  0.000000e+000 -1.000000e+000  -0.000000e+000
    outer loop
      vertex  3.000000e+001 -2.000000e+001  0.000000e+000
      vertex  2.117977e+001 -2.000000e+001  5.346153e+000
      vertex  2.107899e+001 -2.000000e+001  4.410546e+000
    endloop
  endfacet
  facet normal  0.000000e+000 -1.000000e+000  -0.000000e+000
    outer loop
      vertex  3.000000e+001 -2.000000e+001  0.000000e+000
      vertex  2.107899e+001 -2.000000e+001  4.410546e+000
      vertex  2.034615e+001 -2.000000e+001  3.820234e+000
    endloop
  endfacet
  facet normal  -0.000000e+000 -1.000000e+000  -0.000000e+000
    outer loop
      vertex  3.000000e+001 -2.000000e+001  0.000000e+000
      vertex  2.034615e+001 -2.000000e+001  3.820234e+000
      vertex  1.941055e+001 -2.000000e+001  3.921012e+000
    endloop
  endfacet
  facet normal  -0.000000e+000 -1.000000e+000  -0.000000e+000
    outer loop
      vertex  3.000000e+001 -2.000000e+001  0.000000e+000
      vertex  1.941055e+001 -2.000000e+001  3.921012e+000
      vertex -1.892101e+001 -2.000000e+001  4.410546e+000
    endloop
  endfacet
  facet normal  0.000000e+000 -1.000000e+000  -0.000000e+000
    outer loop
      vertex  3.000000e+001 -2.000000e+001  0.000000e+000
      vertex -1.892101e+001 -2.000000e+001  4.410546e+000
      vertex -1.965385e+001 -2.000000e+001  3.820234e+000
    endloop
  endfacet
  facet normal  0.000000e+000 -1.000000e+000  0.000000e+000
    outer loop
      vertex  3.000000e+001 -2.000000e+001  1.000000e+001
      vertex -3.000000e+001 -2.000000e+001  1.000000e+001
      vertex -2.034615e+001 -2.000000e+001  6.179766e+000
    endloop
  endfacet
  facet normal  0.000000e+000 -1.000000e+000  0.000000e+000
    outer loop
      vertex  3.000000e+001 -2.000000e+001  1.000000e+001
      vertex -2.034615e+001 -2.000000e+001  6.179766e+000
      vertex -1.941055e+001 -2.000000e+001  6.078988e+000
    endloop
  endfacet
  facet normal  0.000000e+000 -1.000000e+000  0.000000e+000
    outer loop
      vertex  3.000000e+001 -2.000000e+001  1.000000e+001
      vertex -1.941055e+001 -2.000000e+001  6.078988e+000
      vertex -1.882023e+001 -2.000000e+001  5.346153e+000
    endloop
  endfacet
  facet normal  0.000000e+000 -1.000000e+000  0.000000e+000
    outer loop
      vertex  3.000000e+001 -2.000000e+001  1.000000e+001
      vertex -1.882023e+001 -2.000000e+001  5.346153e+000
      vertex  1.965385e+001 -2.000000e+001  6.179766e+000
    endloop
  endfacet
  facet normal  0.000000e+000 -9.999999e-001  0.000000e+000
    outer loop
      vertex  3.000000e+001 -2.000000e+001  1.000000e+001
      vertex  1.965385e+001 -2.000000e+001  6.179766e+000
      vertex  2.058945e+001 -2.000000e+001  6.078988e+000
    endloop
  endfacet
  facet normal  0.000000e+000 -1.000000e+000  0.000000e+000
    outer loop
      vertex  3.000000e+001 -2.000000e+001  1.000000e+001
      vertex  2.058945e+001 -2.000000e+001  6.078988e+000
      vertex  2.117977e+001 -2.000000e+001  5.346153e+000
    endloop
  endfacet
  facet normal  0.000000e+000 -1.000000e+000  0.000000e+000
    outer loop
      vertex  3.000000e+001 -2.000000e+001  1.000000e+001
      vertex  2.117977e+001 -2.000000e+001  5.346153e+000
      vertex  3.000000e+001 -2.000000e+001  0.000000e+000
    endloop
  endfacet
  facet normal  0.000000e+000 -1.000000e+000  0.000000e+000
    outer loop
      vertex -3.000000e+001 -2.000000e+001  0.000000e+000
      vertex  3.000000e+001 -2.000000e+001  0.000000e+000
      vertex -1.965385e+001 -2.000000e+001  3.820234e+000
    endloop
  endfacet
  facet normal  -0.000000e+000 -1.000000e+000  0.000000e+000
    outer loop
      vertex -3.000000e+001 -2.000000e+001  0.000000e+000
      vertex -1.965385e+001 -2.000000e+001  3.820234e+000
      vertex -2.058945e+001 -2.000000e+001  3.921012e+000
    endloop
  endfacet
  facet normal  -0.000000e+000 -1.000000e+000  0.000000e+000
    outer loop
      vertex -3.000000e+001 -2.000000e+001  0.000000e+000
      vertex -2.058945e+001 -2.000000e+001  3.921012e+000
      vertex -2.117977e+001 -2.000000e+001  4.653847e+000
    endloop
  endfacet
  facet normal  -0.000000e+000 -1.000000e+000  0.000000e+000
    outer loop
      vertex -3.000000e+001 -2.000000e+001  0.000000e+000
      vertex -2.117977e+001 -2.000000e+001  4.653847e+000
      vertex -2.107899e+001 -2.000000e+001  5.589454e+000
    endloop
  endfacet
  facet normal  -0.000000e+000 -9.999999e-001  0.000000e+000
    outer loop
      vertex -3.000000e+001 -2.000000e+001  0.000000e+000
      vertex -2.107899e+001 -2.000000e+001  5.589454e+000
      vertex -2.034615e+001 -2.000000e+001  6.179766e+000
    endloop
  endfacet
  facet normal  -0.000000e+000 -1.000000e+000  0.000000e+000
    outer loop
      vertex -3.000000e+001 -2.000000e+001  0.000000e+000
      vertex -2.034615e+001 -2.000000e+001  6.179766e+000
      vertex -3.000000e+001 -2.000000e+001  1.000000e+001
    endloop
  endfacet
  facet normal  0.000000e+000 -1.000000e+000  0.000000e+000
    outer loop
      vertex  1.892101e+001 -2.000000e+001  5.589454e+000
      vertex -1.882023e+001 -2.000000e+001  5.346153e+000
      vertex  1.882023e+001 -2.000000e+001  4.653847e+000
    endloop
  endfacet
  facet normal  -0.000000e+000 -1.000000e+000  0.000000e+000
    outer loop
      vertex  1.882023e+001 -2.000000e+001  4.653847e+000
      vertex -1.882023e+001 -2.000000e+001  5.346153e+000
      vertex -1.892101e+001 -2.000000e+001  4.410546e+000
    endloop
  endfacet
  facet normal  0.000000e+000 -1.000000e+000  0.000000e+000
    outer loop
      vertex  1.882023e+001 -2.000000e+001  4.653847e+000
      vertex -1.892101e+001 -2.000000e+001  4.410546e+000
      vertex  1.941055e+001 -2.000000e+001  3.921012e+000
    endloop
  endfacet
  facet normal  7.787686e-001  0.000000e+000  6.273113e-001
    outer loop
      vertex -2.058945e+001 -2.000000e+001  3.921012e+000
      vertex -2.117977e+001 -5.000000e+000  4.653847e+000
      vertex -2.117977e+001 -2.000000e+001  4.653847e+000
    endloop
  endfacet
  facet normal  9.942488e-001  0.000000e+000 -1.070952e-001
    outer loop
      vertex -2.117977e+001 -2.000000e+001  4.653847e+000
      vertex -2.117977e+001 -5.000000e+000  4.653847e+000
      vertex -2.107899e+001 -5.000000e+000  5.589454e+000
    endloop
  endfacet
  facet normal  9.942488e-001  0.000000e+000 -1.070952e-001
    outer loop
      vertex -2.117977e+001 -2.000000e+001  4.653847e+000
      vertex -2.107899e+001 -5.000000e+000  5.589454e+000
      vertex -2.107899e+001 -2.000000e+001  5.589454e+000
    endloop
  endfacet
  facet normal  7.787686e-001  -0.000000e+000  6.273113e-001
    outer loop
      vertex -2.117977e+001 -5.000000e+000  4.653847e+000
      vertex -2.058945e+001 -2.000000e+001  3.921012e+000
      vertex -2.058945e+001 -5.000000e+000  3.921012e+000
    endloop
  endfacet
  facet normal  1.070948e-001  0.000000e+000  9.942488e-001
    outer loop
      vertex -2.058945e+001 -5.000000e+000  3.921012e+000
      vertex -2.058945e+001 -2.000000e+001  3.921012e+000
      vertex -1.965385e+001 -2.000000e+001  3.820234e+000
    endloop
  endfacet
  facet normal  1.070948e-001  -0.000000e+000  9.942488e-001
    outer loop
      vertex -2.058945e+001 -5.000000e+000  3.921012e+000
      vertex -1.965385e+001 -2.000000e+001  3.820234e+000
      vertex -1.965385e+001 -5.000000e+000  3.820234e+000
    endloop
  endfacet
  facet normal -6.273128e-001  0.000000e+000  7.787674e-001
    outer loop
      vertex -1.965385e+001 -5.000000e+000  3.820234e+000
      vertex -1.965385e+001 -2.000000e+001  3.820234e+000
      vertex -1.892101e+001 -2.000000e+001  4.410546e+000
    endloop
  endfacet
  facet normal -6.273128e-001  0.000000e+000  7.787674e-001
    outer loop
      vertex -1.965385e+001 -5.000000e+000  3.820234e+000
      vertex -1.892101e+001 -2.000000e+001  4.410546e+000
      vertex -1.892101e+001 -5.000000e+000  4.410546e+000
    endloop
  endfacet
  facet normal -7.787685e-001  -0.000000e+000 -6.273115e-001
    outer loop
      vertex -1.941055e+001 -2.000000e+001  6.078988e+000
      vertex -1.882023e+001 -5.000000e+000  5.346153e+000
      vertex -1.882023e+001 -2.000000e+001  5.346153e+000
    endloop
  endfacet
  facet normal -9.942488e-001  0.000000e+000  1.070952e-001
    outer loop
      vertex -1.882023e+001 -2.000000e+001  5.346153e+000
      vertex -1.882023e+001 -5.000000e+000  5.346153e+000
      vertex -1.892101e+001 -5.000000e+000  4.410546e+000
    endloop
  endfacet
  facet normal -9.942488e-001  0.000000e+000  1.070952e-001
    outer loop
      vertex -1.882023e+001 -2.000000e+001  5.346153e+000
      vertex -1.892101e+001 -5.000000e+000  4.410546e+000
      vertex -1.892101e+001 -2.000000e+001  4.410546e+000
    endloop
  endfacet
  facet normal -7.787685e-001  0.000000e+000 -6.273115e-001
    outer loop
      vertex -1.882023e+001 -5.000000e+000  5.346153e+000
      vertex -1.941055e+001 -2.000000e+001  6.078988e+000
      vertex -1.941055e+001 -5.000000e+000  6.078988e+000
    endloop
  endfacet
  facet normal -1.070951e-001  -0.000000e+000 -9.942488e-001
    outer loop
      vertex -1.941055e+001 -5.000000e+000  6.078988e+000
      vertex -1.941055e+001 -2.000000e+001  6.078988e+000
      vertex -2.034615e+001 -2.000000e+001  6.179766e+000
    endloop
  endfacet
  facet normal -1.070951e-001  0.000000e+000 -9.942488e-001
    outer loop
      vertex -1.941055e+001 -5.000000e+000  6.078988e+000
      vertex -2.034615e+001 -2.000000e+001  6.179766e+000
      vertex -2.034615e+001 -5.000000e+000  6.179766e+000
    endloop
  endfacet
  facet normal  6.273128e-001  0.000000e+000 -7.787674e-001
    outer loop
      vertex -2.034615e+001 -5.000000e+000  6.179766e+000
      vertex -2.034615e+001 -2.000000e+001  6.179766e+000
      vertex -2.107899e+001 -2.000000e+001  5.589454e+000
    endloop
  endfacet
  facet normal  6.273128e-001  0.000000e+000 -7.787674e-001
    outer loop
      vertex -2.034615e+001 -5.000000e+000  6.179766e+000
      vertex -2.107899e+001 -2.000000e+001  5.589454e+000
      vertex -2.107899e+001 -5.000000e+000  5.589454e+000
    endloop
  endfacet
  facet normal  0.000000e+000 -1.000000e+000  0.000000e+000
    outer loop
      vertex -1.941055e+001 -5.000000e+000  6.078988e+000
      vertex -1.892101e+001 -5.000000e+000  4.410546e+000
      vertex -1.882023e+001 -5.000000e+000  5.346153e+000
    endloop
  endfacet
  facet normal  0.000000e+000 -1.000000e+000  -0.000000e+000
    outer loop
      vertex -1.892101e+001 -5.000000e+000  4.410546e+000
      vertex -1.941055e+001 -5.000000e+000  6.078988e+000
      vertex -1.965385e+001 -5.000000e+000  3.820234e+000
    endloop
  endfacet
  facet normal  0.000000e+000 -1.000000e+000  0.000000e+000
    outer loop
      vertex -1.965385e+001 -5.000000e+000  3.820234e+000
      vertex -1.941055e+001 -5.000000e+000  6.078988e+000
      vertex -2.034615e+001 -5.000000e+000  6.179766e+000
    endloop
  endfacet
  facet normal  0.000000e+000 -1.000000e+000  -0.000000e+000
    outer loop
      vertex -1.965385e+001 -5.000000e+000  3.820234e+000
      vertex -2.034615e+001 -5.000000e+000  6.179766e+000
      vertex -2.058945e+001 -5.000000e+000  3.921012e+000
    endloop
  endfacet
  facet normal  0.000000e+000 -1.000000e+000  0.000000e+000
    outer loop
      vertex -2.058945e+001 -5.000000e+000  3.921012e+000
      vertex -2.034615e+001 -5.000000e+000  6.179766e+000
      vertex -2.107899e+001 -5.000000e+000  5.589454e+000
    endloop
  endfacet
  facet normal  0.000000e+000 -1.000000e+000  -0.000000e+000
    outer loop
      vertex -2.058945e+001 -5.000000e+000  3.921012e+000
      vertex -2.107899e+001 -5.000000e+000  5.589454e+000
      vertex -2.117977e+001 -5.000000e+000  4.653847e+000
    endloop
  endfacet
  facet normal  7.787686e-001  0.000000e+000  6.273113e-001
    outer loop
      vertex  1.941055e+001 -2.000000e+001  3.921012e+000
      vertex  1.882023e+001 -5.000000e+000  4.653847e+000
      vertex  1.882023e+001 -2.000000e+001  4.653847e+000
    endloop
  endfacet
  facet normal  9.942488e-001  0.000000e+000 -1.070952e-001
    outer loop
      vertex  1.882023e+001 -2.000000e+001  4.653847e+000
      vertex  1.882023e+001 -5.000000e+000  4.653847e+000
      vertex  1.892101e+001 -5.000000e+000  5.589454e+000
    endloop
  endfacet
  facet normal  9.942488e-001  0.000000e+000 -1.070952e-001
    outer loop
      vertex  1.882023e+001 -2.000000e+001  4.653847e+000
      vertex  1.892101e+001 -5.000000e+000  5.589454e+000
      vertex  1.892101e+001 -2.000000e+001  5.589454e+000
    endloop
  endfacet
  facet normal  7.787686e-001  -0.000000e+000  6.273113e-001
    outer loop
      vertex  1.882023e+001 -5.000000e+000  4.653847e+000
      vertex  1.941055e+001 -2.000000e+001  3.921012e+000
      vertex  1.941055e+001 -5.000000e+000  3.921012e+000
    endloop
  endfacet
  facet normal  1.070948e-001  0.000000e+000  9.942488e-001
    outer loop
      vertex  1.941055e+001 -5.000000e+000  3.921012e+000
      vertex  1.941055e+001 -2.000000e+001  3.921012e+000
      vertex  2.034615e+001 -2.000000e+001  3.820234e+000
    endloop
  endfacet
  facet normal  1.070948e-001  -0.000000e+000  9.942488e-001
    outer loop
      vertex  1.941055e+001 -5.000000e+000  3.921012e+000
      vertex  2.034615e+001 -2.000000e+001  3.820234e+000
      vertex  2.034615e+001 -5.000000e+000  3.820234e+000
    endloop
  endfacet
  facet normal -6.273128e-001  0.000000e+000  7.787674e-001
    outer loop
      vertex  2.034615e+001 -5.000000e+000  3.820234e+000
      vertex  2.034615e+001 -2.000000e+001  3.820234e+000
      vertex  2.107899e+001 -2.000000e+001  4.410546e+000
    endloop
  endfacet
  facet normal -6.273128e-001  0.000000e+000  7.787674e-001
    outer loop
      vertex  2.034615e+001 -5.000000e+000  3.820234e+000
      vertex  2.107899e+001 -2.000000e+001  4.410546e+000
      vertex  2.107899e+001 -5.000000e+000  4.410546e+000
    endloop
  endfacet
  facet normal -7.787685e-001  -0.000000e+000 -6.273115e-001
    outer loop
      vertex  2.058945e+001 -2.000000e+001  6.078988e+000
      vertex  2.117977e+001 -5.000000e+000  5.346153e+000
      vertex  2.117977e+001 -2.000000e+001  5.346153e+000
    endloop
  endfacet
  facet normal -9.942488e-001  0.000000e+000  1.070952e-001
    outer loop
      vertex  2.117977e+001 -2.000000e+001  5.346153e+000
      vertex  2.117977e+001 -5.000000e+000  5.346153e+000
      vertex  2.107899e+001 -5.000000e+000  4.410546e+000
    endloop
  endfacet
  facet normal -9.942488e-001  0.000000e+000  1.070952e-001
    outer loop
      vertex  2.117977e+001 -2.000000e+001  5.346153e+000
      vertex  2.107899e+001 -5.000000e+000  4.410546e+000
      vertex  2.107899e+001 -2.000000e+001  4.410546e+000
    endloop
  endfacet
  facet normal -7.787685e-001  0.000000e+000 -6.273115e-001
    outer loop
      vertex  2.117977e+001 -5.000000e+000  5.346153e+000
      vertex  2.058945e+001 -2.000000e+001  6.078988e+000
      vertex  2.058945e+001 -5.000000e+000  6.078988e+000
    endloop
  endfacet
  facet normal -1.070951e-001  -0.000000e+000 -9.942488e-001
    outer loop
      vertex  2.058945e+001 -5.000000e+000  6.078988e+000
      vertex  2.058945e+001 -2.000000e+001  6.078988e+000
      vertex  1.965385e+001 -2.000000e+001  6.179766e+000
    endloop
  endfacet
  facet normal -1.070951e-001  0.000000e+000 -9.942488e-001
    outer loop
      vertex  2.058945e+001 -5.000000e+000  6.078988e+000
      vertex  1.965385e+001 -2.000000e+001  6.179766e+000
      vertex  1.965385e+001 -5.000000e+000  6.179766e+000
    endloop
  endfacet
  facet normal  6.273128e-001  0.000000e+000 -7.787674e-001
    outer loop
      vertex  1.965385e+001 -5.000000e+000  6.179766e+000
      vertex  1.965385e+001 -2.000000e+001  6.179766e+000
      vertex  1.892101e+001 -2.000000e+001  5.589454e+000
    endloop
  endfacet
  facet normal  6.273128e-001  0.000000e+000 -7.787674e-001
    outer loop
      vertex  1.965385e+001 -5.000000e+000  6.179766e+000
      vertex  1.892101e+001 -2.000000e+001  5.589454e+000
      vertex  1.892101e+001 -5.000000e+000  5.589454e+000
    endloop
  endfacet
  facet normal  0.000000e+000 -1.000000e+000  0.000000e+000
    outer loop
      vertex  2.058945e+001 -5.000000e+000  6.078988e+000
      vertex  2.107899e+001 -5.000000e+000  4.410546e+000
      vertex  2.117977e+001 -5.000000e+000  5.346153e+000
    endloop
  endfacet
  facet normal  0.000000e+000 -1.000000e+000  -0.000000e+000
    outer loop
      vertex  2.107899e+001 -5.000000e+000  4.410546e+000
      vertex  2.058945e+001 -5.000000e+000  6.078988e+000
      vertex  2.034615e+001 -5.000000e+000  3.820234e+000
    endloop
  endfacet
  facet normal  0.000000e+000 -1.000000e+000  0.000000e+000
    outer loop
      vertex  2.034615e+001 -5.000000e+000  3.820234e+000
      vertex  2.058945e+001 -5.000000e+000  6.078988e+000
      vertex  1.965385e+001 -5.000000e+000  6.179766e+000
    endloop
  endfacet
  facet normal  0.000000e+000 -1.000000e+000  -0.000000e+000
    outer loop
      vertex  2.034615e+001 -5.000000e+000  3.820234e+000
      vertex  1.965385e+001 -5.000000e+000  6.179766e+000
      vertex  1.941055e+001 -5.000000e+000  3.921012e+000
    endloop
  endfacet
  facet normal  0.000000e+000 -1.000000e+000  0.000000e+000
    outer loop
      vertex  1.941055e+001 -5.000000e+000  3.921012e+000
      vertex  1.965385e+001 -5.000000e+000  6.179766e+000
      vertex  1.892101e+001 -5.000000e+000  5.589454e+000
    endloop
  endfacet
  facet normal  0.000000e+000 -1.000000e+000  -0.000000e+000
    outer loop
      vertex  1.941055e+001 -5.000000e+000  3.921012e+000
      vertex  1.892101e+001 -5.000000e+000  5.589454e+000
      vertex  1.882023e+001 -5.000000e+000  4.653847e+000
    endloop
  endfacet
  facet normal -2.588191e-001  9.659258e-001  0.000000e+000
    outer loop
      vertex -9.184850e-016 -1.000000e+001  1.000000e+000
      vertex  2.500000e+000 -9.330127e+000  1.000000e+001
      vertex  2.500000e+000 -9.330127e+000  1.000000e+000
    endloop
  endfacet
  facet normal -7.071067e-001  7.071069e-001  0.000000e+000
    outer loop
      vertex  2.500000e+000 -9.330127e+000  1.000000e+000
      vertex  2.500000e+000 -9.330127e+000  1.000000e+001
      vertex  4.330127e+000 -7.500000e+000  1.000000e+001
    endloop
  endfacet
  facet normal -7.071067e-001  7.071069e-001  0.000000e+000
    outer loop
      vertex  2.500000e+000 -9.330127e+000  1.000000e+000
      vertex  4.330127e+000 -7.500000e+000  1.000000e+001
      vertex  4.330127e+000 -7.500000e+000  1.000000e+000
    endloop
  endfacet
  facet normal -9.659258e-001  2.588190e-001  0.000000e+000
    outer loop
      vertex  4.330127e+000 -7.500000e+000  1.000000e+000
      vertex  4.330127e+000 -7.500000e+000  1.000000e+001
      vertex  5.000000e+000 -5.000000e+000  1.000000e+001
    endloop
  endfacet
  facet normal -9.659258e-001  2.588190e-001  0.000000e+000
    outer loop
      vertex  4.330127e+000 -7.500000e+000  1.000000e+000
      vertex  5.000000e+000 -5.000000e+000  1.000000e+001
      vertex  5.000000e+000 -5.000000e+000  1.000000e+000
    endloop
  endfacet
  facet normal -2.588191e-001  9.659258e-001  0.000000e+000
    outer loop
      vertex  2.500000e+000 -9.330127e+000  1.000000e+001
      vertex -9.184850e-016 -1.000000e+001  1.000000e+000
      vertex -9.184850e-016 -1.000000e+001  1.000000e+001
    endloop
  endfacet
  facet normal  2.588191e-001  9.659258e-001  0.000000e+000
    outer loop
      vertex -9.184850e-016 -1.000000e+001  1.000000e+001
      vertex -9.184850e-016 -1.000000e+001  1.000000e+000
      vertex -2.500000e+000 -9.330127e+000  1.000000e+000
    endloop
  endfacet
  facet normal  2.588191e-001  9.659258e-001  -0.000000e+000
    outer loop
      vertex -9.184850e-016 -1.000000e+001  1.000000e+001
      vertex -2.500000e+000 -9.330127e+000  1.000000e+000
      vertex -2.500000e+000 -9.330127e+000  1.000000e+001
    endloop
  endfacet
  facet normal  7.071067e-001  7.071069e-001  0.000000e+000
    outer loop
      vertex -2.500000e+000 -9.330127e+000  1.000000e+001
      vertex -2.500000e+000 -9.330127e+000  1.000000e+000
      vertex -4.330127e+000 -7.500000e+000  1.000000e+000
    endloop
  endfacet
  facet normal  7.071067e-001  7.071069e-001  -0.000000e+000
    outer loop
      vertex -2.500000e+000 -9.330127e+000  1.000000e+001
      vertex -4.330127e+000 -7.500000e+000  1.000000e+000
      vertex -4.330127e+000 -7.500000e+000  1.000000e+001
    endloop
  endfacet
  facet normal  9.659258e-001  2.588190e-001  0.000000e+000
    outer loop
      vertex -4.330127e+000 -7.500000e+000  1.000000e+001
      vertex -4.330127e+000 -7.500000e+000  1.000000e+000
      vertex -5.000000e+000 -5.000000e+000  1.000000e+000
    endloop
  endfacet
  facet normal  9.659258e-001  2.588190e-001  -0.000000e+000
    outer loop
      vertex -4.330127e+000 -7.500000e+000  1.000000e+001
      vertex -5.000000e+000 -5.000000e+000  1.000000e+000
      vertex -5.000000e+000 -5.000000e+000  1.000000e+001
    endloop
  endfacet
endsolid CATIA STL
